<svg width="20" height="21" viewBox="0 0 20 21" fill="none" xmlns="http://www.w3.org/2000/svg">
<path d="M14.6 12.4996C14.4 12.3996 13.1 11.7996 12.9 11.6996C12.7 11.5996 12.5 11.5996 12.3 11.7996C12.1 11.9996 11.7 12.5996 11.5 12.7996C11.4 12.9996 11.2 12.9996 11 12.8996C10.3 12.5996 9.6 12.1996 9 11.6996C8.5 11.1996 8 10.5996 7.6 9.99961C7.5 9.79961 7.6 9.59961 7.7 9.49961C7.8 9.39961 7.9 9.19961 8.1 9.09961C8.2 8.99961 8.3 8.79961 8.3 8.69961C8.4 8.59961 8.4 8.39961 8.3 8.29961C8.2 8.19961 7.7 6.99961 7.5 6.49961C7.4 5.79961 7.2 5.79961 7 5.79961C6.9 5.79961 6.7 5.79961 6.5 5.79961C6.3 5.79961 6 5.99961 5.9 6.09961C5.3 6.69961 5 7.39961 5 8.19961C5.1 9.09961 5.4 9.99961 6 10.7996C7.1 12.3996 8.5 13.6996 10.2 14.4996C10.7 14.6996 11.1 14.8996 11.6 14.9996C12.1 15.1996 12.6 15.1996 13.2 15.0996C13.9 14.9996 14.5 14.4996 14.9 13.8996C15.1 13.4996 15.1 13.0996 15 12.6996C15 12.6996 14.8 12.5996 14.6 12.4996ZM17.1 3.39961C13.2 -0.500391 6.9 -0.500391 3 3.39961C-0.2 6.59961 -0.8 11.4996 1.4 15.3996L0 20.4996L5.3 19.0996C6.8 19.8996 8.4 20.2996 10 20.2996C15.5 20.2996 19.9 15.8996 19.9 10.3996C20 7.79961 18.9 5.29961 17.1 3.39961ZM14.4 17.3996C13.1 18.1996 11.6 18.6996 10 18.6996C8.5 18.6996 7.1 18.2996 5.8 17.5996L5.5 17.3996L2.4 18.1996L3.2 15.1996L3 14.8996C0.6 10.8996 1.8 5.89961 5.7 3.39961C9.6 0.89961 14.6 2.19961 17 5.99961C19.4 9.89961 18.3 14.9996 14.4 17.3996Z" fill="#F9F9F9"/>
</svg>
