<svg width="86" height="78" viewBox="0 0 86 78" fill="none" xmlns="http://www.w3.org/2000/svg">
<g opacity="0.3">
<mask id="mask0_3040_279" style="mask-type:alpha" maskUnits="userSpaceOnUse" x="0" y="0" width="8" height="8">
<path d="M3.90962 7.97735C6.06885 7.97735 7.81925 6.19152 7.81925 3.98865C7.81925 1.78577 6.06885 0 3.90962 0C1.7504 0 0 1.78577 0 3.98865C0 6.19152 1.7504 7.97735 3.90962 7.97735Z" fill="url(#paint0_linear_3040_279)"/>
</mask>
<g mask="url(#mask0_3040_279)">
<path d="M3.90962 7.97735C6.06885 7.97735 7.81925 6.19152 7.81925 3.98865C7.81925 1.78577 6.06885 0 3.90962 0C1.7504 0 0 1.78577 0 3.98865C0 6.19152 1.7504 7.97735 3.90962 7.97735Z" fill="url(#paint1_linear_3040_279)"/>
</g>
<mask id="mask1_3040_279" style="mask-type:alpha" maskUnits="userSpaceOnUse" x="22" y="0" width="9" height="8">
<path d="M26.5522 7.97735C28.7114 7.97735 30.4618 6.19152 30.4618 3.98865C30.4618 1.78577 28.7114 0 26.5522 0C24.393 0 22.6426 1.78577 22.6426 3.98865C22.6426 6.19152 24.393 7.97735 26.5522 7.97735Z" fill="url(#paint2_linear_3040_279)"/>
</mask>
<g mask="url(#mask1_3040_279)">
<path d="M26.5522 7.97735C28.7114 7.97735 30.4618 6.19152 30.4618 3.98865C30.4618 1.78577 28.7114 0 26.5522 0C24.393 0 22.6426 1.78577 22.6426 3.98865C22.6426 6.19152 24.393 7.97735 26.5522 7.97735Z" fill="url(#paint3_linear_3040_279)"/>
</g>
<mask id="mask2_3040_279" style="mask-type:alpha" maskUnits="userSpaceOnUse" x="45" y="0" width="9" height="8">
<path d="M49.1948 7.97735C51.354 7.97735 53.1044 6.19152 53.1044 3.98865C53.1044 1.78577 51.354 0 49.1948 0C47.0356 0 45.2852 1.78577 45.2852 3.98865C45.2852 6.19152 47.0356 7.97735 49.1948 7.97735Z" fill="url(#paint4_linear_3040_279)"/>
</mask>
<g mask="url(#mask2_3040_279)">
<path d="M49.1948 7.97735C51.354 7.97735 53.1044 6.19152 53.1044 3.98865C53.1044 1.78577 51.354 0 49.1948 0C47.0356 0 45.2852 1.78577 45.2852 3.98865C45.2852 6.19152 47.0356 7.97735 49.1948 7.97735Z" fill="url(#paint5_linear_3040_279)"/>
</g>
<mask id="mask3_3040_279" style="mask-type:alpha" maskUnits="userSpaceOnUse" x="67" y="0" width="9" height="8">
<path d="M71.8374 7.97735C73.9966 7.97735 75.747 6.19152 75.747 3.98865C75.747 1.78577 73.9966 0 71.8374 0C69.6781 0 67.9277 1.78577 67.9277 3.98865C67.9277 6.19152 69.6781 7.97735 71.8374 7.97735Z" fill="url(#paint6_linear_3040_279)"/>
</mask>
<g mask="url(#mask3_3040_279)">
<path d="M71.8374 7.97735C73.9966 7.97735 75.747 6.19152 75.747 3.98865C75.747 1.78577 73.9966 0 71.8374 0C69.6781 0 67.9277 1.78577 67.9277 3.98865C67.9277 6.19152 69.6781 7.97735 71.8374 7.97735Z" fill="url(#paint7_linear_3040_279)"/>
</g>
<mask id="mask4_3040_279" style="mask-type:alpha" maskUnits="userSpaceOnUse" x="0" y="20" width="8" height="9">
<path d="M3.90962 28.0046C6.06885 28.0046 7.81925 26.2188 7.81925 24.016C7.81925 21.8131 6.06885 20.0273 3.90962 20.0273C1.7504 20.0273 0 21.8131 0 24.016C0 26.2188 1.7504 28.0046 3.90962 28.0046Z" fill="url(#paint8_linear_3040_279)"/>
</mask>
<g mask="url(#mask4_3040_279)">
<path d="M3.90962 28.0046C6.06885 28.0046 7.81925 26.2188 7.81925 24.016C7.81925 21.8131 6.06885 20.0273 3.90962 20.0273C1.7504 20.0273 0 21.8131 0 24.016C0 26.2188 1.7504 28.0046 3.90962 28.0046Z" fill="url(#paint9_linear_3040_279)"/>
</g>
<mask id="mask5_3040_279" style="mask-type:alpha" maskUnits="userSpaceOnUse" x="22" y="20" width="9" height="9">
<path d="M26.5522 28.0046C28.7114 28.0046 30.4618 26.2188 30.4618 24.016C30.4618 21.8131 28.7114 20.0273 26.5522 20.0273C24.393 20.0273 22.6426 21.8131 22.6426 24.016C22.6426 26.2188 24.393 28.0046 26.5522 28.0046Z" fill="url(#paint10_linear_3040_279)"/>
</mask>
<g mask="url(#mask5_3040_279)">
<path d="M26.5522 28.0046C28.7114 28.0046 30.4618 26.2188 30.4618 24.016C30.4618 21.8131 28.7114 20.0273 26.5522 20.0273C24.393 20.0273 22.6426 21.8131 22.6426 24.016C22.6426 26.2188 24.393 28.0046 26.5522 28.0046Z" fill="url(#paint11_linear_3040_279)"/>
</g>
<mask id="mask6_3040_279" style="mask-type:alpha" maskUnits="userSpaceOnUse" x="45" y="20" width="9" height="9">
<path d="M49.1948 28.0046C51.354 28.0046 53.1044 26.2188 53.1044 24.016C53.1044 21.8131 51.354 20.0273 49.1948 20.0273C47.0356 20.0273 45.2852 21.8131 45.2852 24.016C45.2852 26.2188 47.0356 28.0046 49.1948 28.0046Z" fill="url(#paint12_linear_3040_279)"/>
</mask>
<g mask="url(#mask6_3040_279)">
<path d="M49.1948 28.0046C51.354 28.0046 53.1044 26.2188 53.1044 24.016C53.1044 21.8131 51.354 20.0273 49.1948 20.0273C47.0356 20.0273 45.2852 21.8131 45.2852 24.016C45.2852 26.2188 47.0356 28.0046 49.1948 28.0046Z" fill="url(#paint13_linear_3040_279)"/>
</g>
<mask id="mask7_3040_279" style="mask-type:alpha" maskUnits="userSpaceOnUse" x="67" y="20" width="9" height="9">
<path d="M71.8374 28.0046C73.9966 28.0046 75.747 26.2188 75.747 24.016C75.747 21.8131 73.9966 20.0273 71.8374 20.0273C69.6781 20.0273 67.9277 21.8131 67.9277 24.016C67.9277 26.2188 69.6781 28.0046 71.8374 28.0046Z" fill="url(#paint14_linear_3040_279)"/>
</mask>
<g mask="url(#mask7_3040_279)">
<path d="M71.8374 28.0046C73.9966 28.0046 75.747 26.2188 75.747 24.016C75.747 21.8131 73.9966 20.0273 71.8374 20.0273C69.6781 20.0273 67.9277 21.8131 67.9277 24.016C67.9277 26.2188 69.6781 28.0046 71.8374 28.0046Z" fill="url(#paint15_linear_3040_279)"/>
</g>
<mask id="mask8_3040_279" style="mask-type:alpha" maskUnits="userSpaceOnUse" x="0" y="40" width="8" height="8">
<path d="M3.90962 47.9891C6.06885 47.9891 7.81925 46.2033 7.81925 44.0004C7.81925 41.7975 6.06885 40.0117 3.90962 40.0117C1.7504 40.0117 0 41.7975 0 44.0004C0 46.2033 1.7504 47.9891 3.90962 47.9891Z" fill="url(#paint16_linear_3040_279)"/>
</mask>
<g mask="url(#mask8_3040_279)">
<path d="M3.90962 47.9891C6.06885 47.9891 7.81925 46.2033 7.81925 44.0004C7.81925 41.7975 6.06885 40.0117 3.90962 40.0117C1.7504 40.0117 0 41.7975 0 44.0004C0 46.2033 1.7504 47.9891 3.90962 47.9891Z" fill="url(#paint17_linear_3040_279)"/>
</g>
<mask id="mask9_3040_279" style="mask-type:alpha" maskUnits="userSpaceOnUse" x="22" y="40" width="9" height="8">
<path d="M26.5522 47.9891C28.7114 47.9891 30.4618 46.2033 30.4618 44.0004C30.4618 41.7975 28.7114 40.0117 26.5522 40.0117C24.393 40.0117 22.6426 41.7975 22.6426 44.0004C22.6426 46.2033 24.393 47.9891 26.5522 47.9891Z" fill="url(#paint18_linear_3040_279)"/>
</mask>
<g mask="url(#mask9_3040_279)">
<path d="M26.5522 47.9891C28.7114 47.9891 30.4618 46.2033 30.4618 44.0004C30.4618 41.7975 28.7114 40.0117 26.5522 40.0117C24.393 40.0117 22.6426 41.7975 22.6426 44.0004C22.6426 46.2033 24.393 47.9891 26.5522 47.9891Z" fill="url(#paint19_linear_3040_279)"/>
</g>
<mask id="mask10_3040_279" style="mask-type:alpha" maskUnits="userSpaceOnUse" x="45" y="40" width="9" height="8">
<path d="M49.1948 47.9891C51.354 47.9891 53.1044 46.2033 53.1044 44.0004C53.1044 41.7975 51.354 40.0117 49.1948 40.0117C47.0356 40.0117 45.2852 41.7975 45.2852 44.0004C45.2852 46.2033 47.0356 47.9891 49.1948 47.9891Z" fill="url(#paint20_linear_3040_279)"/>
</mask>
<g mask="url(#mask10_3040_279)">
<path d="M49.1948 47.9891C51.354 47.9891 53.1044 46.2033 53.1044 44.0004C53.1044 41.7975 51.354 40.0117 49.1948 40.0117C47.0356 40.0117 45.2852 41.7975 45.2852 44.0004C45.2852 46.2033 47.0356 47.9891 49.1948 47.9891Z" fill="url(#paint21_linear_3040_279)"/>
</g>
<mask id="mask11_3040_279" style="mask-type:alpha" maskUnits="userSpaceOnUse" x="67" y="40" width="9" height="8">
<path d="M71.8374 47.9891C73.9966 47.9891 75.747 46.2033 75.747 44.0004C75.747 41.7975 73.9966 40.0117 71.8374 40.0117C69.6781 40.0117 67.9277 41.7975 67.9277 44.0004C67.9277 46.2033 69.6781 47.9891 71.8374 47.9891Z" fill="url(#paint22_linear_3040_279)"/>
</mask>
<g mask="url(#mask11_3040_279)">
<path d="M71.8374 47.9891C73.9966 47.9891 75.747 46.2033 75.747 44.0004C75.747 41.7975 73.9966 40.0117 71.8374 40.0117C69.6781 40.0117 67.9277 41.7975 67.9277 44.0004C67.9277 46.2033 69.6781 47.9891 71.8374 47.9891Z" fill="url(#paint23_linear_3040_279)"/>
</g>
<mask id="mask12_3040_279" style="mask-type:alpha" maskUnits="userSpaceOnUse" x="0" y="60" width="8" height="9">
<path d="M3.90962 68.0164C6.06885 68.0164 7.81925 66.2306 7.81925 64.0277C7.81925 61.8248 6.06885 60.0391 3.90962 60.0391C1.7504 60.0391 0 61.8248 0 64.0277C0 66.2306 1.7504 68.0164 3.90962 68.0164Z" fill="url(#paint24_linear_3040_279)"/>
</mask>
<g mask="url(#mask12_3040_279)">
<path d="M3.90962 68.0164C6.06885 68.0164 7.81925 66.2306 7.81925 64.0277C7.81925 61.8248 6.06885 60.0391 3.90962 60.0391C1.7504 60.0391 0 61.8248 0 64.0277C0 66.2306 1.7504 68.0164 3.90962 68.0164Z" fill="url(#paint25_linear_3040_279)"/>
</g>
<mask id="mask13_3040_279" style="mask-type:alpha" maskUnits="userSpaceOnUse" x="22" y="60" width="9" height="9">
<path d="M26.5522 68.0164C28.7114 68.0164 30.4618 66.2306 30.4618 64.0277C30.4618 61.8248 28.7114 60.0391 26.5522 60.0391C24.393 60.0391 22.6426 61.8248 22.6426 64.0277C22.6426 66.2306 24.393 68.0164 26.5522 68.0164Z" fill="url(#paint26_linear_3040_279)"/>
</mask>
<g mask="url(#mask13_3040_279)">
<path d="M26.5522 68.0164C28.7114 68.0164 30.4618 66.2306 30.4618 64.0277C30.4618 61.8248 28.7114 60.0391 26.5522 60.0391C24.393 60.0391 22.6426 61.8248 22.6426 64.0277C22.6426 66.2306 24.393 68.0164 26.5522 68.0164Z" fill="url(#paint27_linear_3040_279)"/>
</g>
<mask id="mask14_3040_279" style="mask-type:alpha" maskUnits="userSpaceOnUse" x="45" y="60" width="9" height="9">
<path d="M49.1948 68.0164C51.354 68.0164 53.1044 66.2306 53.1044 64.0277C53.1044 61.8248 51.354 60.0391 49.1948 60.0391C47.0356 60.0391 45.2852 61.8248 45.2852 64.0277C45.2852 66.2306 47.0356 68.0164 49.1948 68.0164Z" fill="url(#paint28_linear_3040_279)"/>
</mask>
<g mask="url(#mask14_3040_279)">
<path d="M49.1948 68.0164C51.354 68.0164 53.1044 66.2306 53.1044 64.0277C53.1044 61.8248 51.354 60.0391 49.1948 60.0391C47.0356 60.0391 45.2852 61.8248 45.2852 64.0277C45.2852 66.2306 47.0356 68.0164 49.1948 68.0164Z" fill="url(#paint29_linear_3040_279)"/>
</g>
<mask id="mask15_3040_279" style="mask-type:alpha" maskUnits="userSpaceOnUse" x="67" y="60" width="9" height="9">
<path d="M71.8374 68.0164C73.9966 68.0164 75.747 66.2306 75.747 64.0277C75.747 61.8248 73.9966 60.0391 71.8374 60.0391C69.6781 60.0391 67.9277 61.8248 67.9277 64.0277C67.9277 66.2306 69.6781 68.0164 71.8374 68.0164Z" fill="url(#paint30_linear_3040_279)"/>
</mask>
<g mask="url(#mask15_3040_279)">
<path d="M71.8374 68.0164C73.9966 68.0164 75.747 66.2306 75.747 64.0277C75.747 61.8248 73.9966 60.0391 71.8374 60.0391C69.6781 60.0391 67.9277 61.8248 67.9277 64.0277C67.9277 66.2306 69.6781 68.0164 71.8374 68.0164Z" fill="url(#paint31_linear_3040_279)"/>
</g>
</g>
<defs>
<linearGradient id="paint0_linear_3040_279" x1="38.076" y1="92.4707" x2="-17.486" y2="-45.7764" gradientUnits="userSpaceOnUse">
<stop stop-color="#89C5CC"/>
<stop offset="1" stop-color="#89C5CC"/>
</linearGradient>
<linearGradient id="paint1_linear_3040_279" x1="38.076" y1="92.4707" x2="-17.486" y2="-45.7764" gradientUnits="userSpaceOnUse">
<stop stop-color="#89C5CC"/>
<stop offset="1" stop-color="#89C5CC"/>
</linearGradient>
<linearGradient id="paint2_linear_3040_279" x1="60.7186" y1="92.4707" x2="5.15663" y2="-45.7764" gradientUnits="userSpaceOnUse">
<stop stop-color="#89C5CC"/>
<stop offset="1" stop-color="#89C5CC"/>
</linearGradient>
<linearGradient id="paint3_linear_3040_279" x1="60.7186" y1="92.4707" x2="5.15663" y2="-45.7764" gradientUnits="userSpaceOnUse">
<stop stop-color="#89C5CC"/>
<stop offset="1" stop-color="#89C5CC"/>
</linearGradient>
<linearGradient id="paint4_linear_3040_279" x1="83.3612" y1="92.4707" x2="27.7992" y2="-45.7764" gradientUnits="userSpaceOnUse">
<stop stop-color="#89C5CC"/>
<stop offset="1" stop-color="#89C5CC"/>
</linearGradient>
<linearGradient id="paint5_linear_3040_279" x1="83.3612" y1="92.4707" x2="27.7992" y2="-45.7764" gradientUnits="userSpaceOnUse">
<stop stop-color="#89C5CC"/>
<stop offset="1" stop-color="#89C5CC"/>
</linearGradient>
<linearGradient id="paint6_linear_3040_279" x1="106.004" y1="92.4707" x2="50.4418" y2="-45.7764" gradientUnits="userSpaceOnUse">
<stop stop-color="#89C5CC"/>
<stop offset="1" stop-color="#89C5CC"/>
</linearGradient>
<linearGradient id="paint7_linear_3040_279" x1="106.004" y1="92.4707" x2="50.4418" y2="-45.7764" gradientUnits="userSpaceOnUse">
<stop stop-color="#89C5CC"/>
<stop offset="1" stop-color="#89C5CC"/>
</linearGradient>
<linearGradient id="paint8_linear_3040_279" x1="38.076" y1="112.497" x2="-17.4851" y2="-25.749" gradientUnits="userSpaceOnUse">
<stop stop-color="#89C5CC"/>
<stop offset="1" stop-color="#89C5CC"/>
</linearGradient>
<linearGradient id="paint9_linear_3040_279" x1="38.076" y1="112.497" x2="-17.4851" y2="-25.749" gradientUnits="userSpaceOnUse">
<stop stop-color="#89C5CC"/>
<stop offset="1" stop-color="#89C5CC"/>
</linearGradient>
<linearGradient id="paint10_linear_3040_279" x1="60.7186" y1="112.497" x2="5.15757" y2="-25.749" gradientUnits="userSpaceOnUse">
<stop stop-color="#89C5CC"/>
<stop offset="1" stop-color="#89C5CC"/>
</linearGradient>
<linearGradient id="paint11_linear_3040_279" x1="60.7186" y1="112.497" x2="5.15757" y2="-25.749" gradientUnits="userSpaceOnUse">
<stop stop-color="#89C5CC"/>
<stop offset="1" stop-color="#89C5CC"/>
</linearGradient>
<linearGradient id="paint12_linear_3040_279" x1="83.3612" y1="112.497" x2="27.8002" y2="-25.749" gradientUnits="userSpaceOnUse">
<stop stop-color="#89C5CC"/>
<stop offset="1" stop-color="#89C5CC"/>
</linearGradient>
<linearGradient id="paint13_linear_3040_279" x1="83.3612" y1="112.497" x2="27.8002" y2="-25.749" gradientUnits="userSpaceOnUse">
<stop stop-color="#89C5CC"/>
<stop offset="1" stop-color="#89C5CC"/>
</linearGradient>
<linearGradient id="paint14_linear_3040_279" x1="106.004" y1="112.497" x2="50.4427" y2="-25.749" gradientUnits="userSpaceOnUse">
<stop stop-color="#89C5CC"/>
<stop offset="1" stop-color="#89C5CC"/>
</linearGradient>
<linearGradient id="paint15_linear_3040_279" x1="106.004" y1="112.497" x2="50.4427" y2="-25.749" gradientUnits="userSpaceOnUse">
<stop stop-color="#89C5CC"/>
<stop offset="1" stop-color="#89C5CC"/>
</linearGradient>
<linearGradient id="paint16_linear_3040_279" x1="38.076" y1="132.482" x2="-17.486" y2="-5.76467" gradientUnits="userSpaceOnUse">
<stop stop-color="#89C5CC"/>
<stop offset="1" stop-color="#89C5CC"/>
</linearGradient>
<linearGradient id="paint17_linear_3040_279" x1="38.076" y1="132.482" x2="-17.486" y2="-5.76467" gradientUnits="userSpaceOnUse">
<stop stop-color="#89C5CC"/>
<stop offset="1" stop-color="#89C5CC"/>
</linearGradient>
<linearGradient id="paint18_linear_3040_279" x1="60.7186" y1="132.482" x2="5.15663" y2="-5.76472" gradientUnits="userSpaceOnUse">
<stop stop-color="#89C5CC"/>
<stop offset="1" stop-color="#89C5CC"/>
</linearGradient>
<linearGradient id="paint19_linear_3040_279" x1="60.7186" y1="132.482" x2="5.15663" y2="-5.76472" gradientUnits="userSpaceOnUse">
<stop stop-color="#89C5CC"/>
<stop offset="1" stop-color="#89C5CC"/>
</linearGradient>
<linearGradient id="paint20_linear_3040_279" x1="83.3612" y1="132.482" x2="27.7992" y2="-5.76472" gradientUnits="userSpaceOnUse">
<stop stop-color="#89C5CC"/>
<stop offset="1" stop-color="#89C5CC"/>
</linearGradient>
<linearGradient id="paint21_linear_3040_279" x1="83.3612" y1="132.482" x2="27.7992" y2="-5.76472" gradientUnits="userSpaceOnUse">
<stop stop-color="#89C5CC"/>
<stop offset="1" stop-color="#89C5CC"/>
</linearGradient>
<linearGradient id="paint22_linear_3040_279" x1="106.004" y1="132.482" x2="50.4418" y2="-5.76472" gradientUnits="userSpaceOnUse">
<stop stop-color="#89C5CC"/>
<stop offset="1" stop-color="#89C5CC"/>
</linearGradient>
<linearGradient id="paint23_linear_3040_279" x1="106.004" y1="132.482" x2="50.4418" y2="-5.76472" gradientUnits="userSpaceOnUse">
<stop stop-color="#89C5CC"/>
<stop offset="1" stop-color="#89C5CC"/>
</linearGradient>
<linearGradient id="paint24_linear_3040_279" x1="38.076" y1="152.51" x2="-17.486" y2="14.2627" gradientUnits="userSpaceOnUse">
<stop stop-color="#89C5CC"/>
<stop offset="1" stop-color="#89C5CC"/>
</linearGradient>
<linearGradient id="paint25_linear_3040_279" x1="38.076" y1="152.51" x2="-17.486" y2="14.2627" gradientUnits="userSpaceOnUse">
<stop stop-color="#89C5CC"/>
<stop offset="1" stop-color="#89C5CC"/>
</linearGradient>
<linearGradient id="paint26_linear_3040_279" x1="60.7186" y1="152.51" x2="5.15663" y2="14.2626" gradientUnits="userSpaceOnUse">
<stop stop-color="#89C5CC"/>
<stop offset="1" stop-color="#89C5CC"/>
</linearGradient>
<linearGradient id="paint27_linear_3040_279" x1="60.7186" y1="152.51" x2="5.15663" y2="14.2626" gradientUnits="userSpaceOnUse">
<stop stop-color="#89C5CC"/>
<stop offset="1" stop-color="#89C5CC"/>
</linearGradient>
<linearGradient id="paint28_linear_3040_279" x1="83.3612" y1="152.51" x2="27.7992" y2="14.2626" gradientUnits="userSpaceOnUse">
<stop stop-color="#89C5CC"/>
<stop offset="1" stop-color="#89C5CC"/>
</linearGradient>
<linearGradient id="paint29_linear_3040_279" x1="83.3612" y1="152.51" x2="27.7992" y2="14.2626" gradientUnits="userSpaceOnUse">
<stop stop-color="#89C5CC"/>
<stop offset="1" stop-color="#89C5CC"/>
</linearGradient>
<linearGradient id="paint30_linear_3040_279" x1="106.004" y1="152.51" x2="50.4418" y2="14.2626" gradientUnits="userSpaceOnUse">
<stop stop-color="#89C5CC"/>
<stop offset="1" stop-color="#89C5CC"/>
</linearGradient>
<linearGradient id="paint31_linear_3040_279" x1="106.004" y1="152.51" x2="50.4418" y2="14.2626" gradientUnits="userSpaceOnUse">
<stop stop-color="#89C5CC"/>
<stop offset="1" stop-color="#89C5CC"/>
</linearGradient>
</defs>
</svg>
