<svg width="520" height="516" viewBox="0 0 520 516" fill="none" xmlns="http://www.w3.org/2000/svg">
<path d="M159.884 215.732H93.457V198.322H159.884V215.732Z" fill="#ECECEC"/>
<mask id="mask0_3040_18" style="mask-type:luminance" maskUnits="userSpaceOnUse" x="0" y="0" width="520" height="516">
<path d="M0 0.396179H520V515.604H0V0.396179Z" fill="white"/>
</mask>
<g mask="url(#mask0_3040_18)">
<path d="M131.793 234.072C131.786 234.064 131.78 233.958 131.772 233.755C131.767 233.522 131.76 233.229 131.751 232.862C131.739 232.043 131.723 230.9 131.701 229.436C131.675 226.43 131.636 222.109 131.587 216.661L131.793 216.865C116.626 216.895 92.5052 216.942 65.3705 216.996C65.5193 216.846 65.0284 217.331 65.7044 216.661V216.665V216.674V216.692V216.727V216.797V216.937V217.216V217.776V218.893C65.7044 219.636 65.7044 220.375 65.7044 221.113C65.7033 222.59 65.7033 224.054 65.7023 225.508C65.7013 228.414 65.6992 231.272 65.6971 234.072L65.3664 233.744C84.2819 233.803 100.832 233.855 112.704 233.892C118.618 233.933 123.362 233.963 126.676 233.986C128.288 234.005 129.551 234.019 130.455 234.029C130.861 234.038 131.187 234.045 131.443 234.05C131.668 234.057 131.786 234.064 131.793 234.072C131.801 234.079 131.697 234.086 131.485 234.093C131.24 234.098 130.928 234.106 130.538 234.114C129.652 234.124 128.413 234.139 126.831 234.157C123.535 234.179 118.816 234.211 112.935 234.25C101.006 234.288 84.3745 234.34 65.3664 234.399L65.0357 234.4L65.0346 234.072C65.0325 231.272 65.0315 228.414 65.0294 225.508C65.0294 224.054 65.0284 222.59 65.0284 221.113C65.0284 220.375 65.0284 219.636 65.0273 218.893V217.776V217.216V216.937V216.797V216.727V216.692V216.674V216.665V216.661C65.7044 215.99 65.2177 216.474 65.3705 216.325C92.5052 216.378 116.626 216.426 131.793 216.457H132.001L131.999 216.661C131.95 222.16 131.912 226.523 131.886 229.557C131.864 231.002 131.847 232.129 131.835 232.938C131.827 233.29 131.819 233.571 131.814 233.796C131.807 233.985 131.801 234.079 131.793 234.072Z" fill="#E1E1E1"/>
<path d="M413.317 56.6055H346.891V39.1946H413.317V56.6055Z" fill="#ECECEC"/>
<path d="M385.446 74.3822C385.438 74.375 385.432 74.2689 385.425 74.0659C385.42 73.833 385.412 73.5394 385.403 73.1725C385.392 72.3533 385.375 71.2106 385.353 69.7464C385.327 66.7407 385.289 62.4191 385.24 56.9713L385.446 57.1753C370.278 57.2052 346.156 57.2526 319.022 57.3062C319.172 57.1568 318.681 57.6411 319.357 56.9713V56.9754V56.9847V57.0022V57.0373V57.1073V57.2475V57.5267V58.0862V59.2032C319.357 59.9461 319.357 60.686 319.356 61.4237C319.356 62.9003 319.356 64.3645 319.355 65.8185C319.353 68.7242 319.352 71.5826 319.349 74.3822L319.019 74.0535C337.934 74.1133 354.485 74.1658 366.356 74.2029C372.27 74.2431 377.014 74.2751 380.329 74.2967C381.941 74.3153 383.203 74.3297 384.107 74.34C384.514 74.3482 384.839 74.3554 385.095 74.3606C385.32 74.3678 385.438 74.375 385.446 74.3822C385.453 74.3894 385.349 74.3967 385.138 74.4039C384.892 74.409 384.58 74.4162 384.19 74.4245C383.304 74.4348 382.066 74.4492 380.484 74.4678C377.187 74.4894 372.468 74.5213 366.587 74.5605C354.658 74.5986 338.026 74.6501 319.019 74.7099L318.688 74.7109L318.687 74.3822C318.685 71.5826 318.684 68.7242 318.682 65.8185C318.682 64.3645 318.681 62.9003 318.681 61.4237C318.68 60.686 318.68 59.9461 318.68 59.2032V58.0862V57.5267V57.2475V57.1073V57.0373V57.0022V56.9847V56.9754V56.9713C319.357 56.3005 318.87 56.7858 319.022 56.6354C346.156 56.689 370.278 56.7364 385.446 56.7673H385.653L385.652 56.9713C385.603 62.4706 385.564 66.8334 385.538 69.867C385.516 71.3126 385.5 72.4399 385.487 73.2488C385.479 73.6002 385.472 73.8815 385.466 74.1061C385.459 74.2957 385.453 74.3894 385.446 74.3822Z" fill="#E1E1E1"/>
<path d="M458.372 271.887H348.201V119.915H458.372V271.887Z" fill="white"/>
<path d="M458.371 271.887C458.371 271.887 458.361 271.635 458.357 271.154C458.354 270.664 458.349 269.952 458.344 269.016C458.336 267.128 458.327 264.346 458.315 260.728C458.3 253.486 458.279 242.909 458.252 229.524C458.223 202.774 458.184 164.811 458.136 119.915L458.371 120.148C425.117 120.155 387.678 120.163 348.213 120.171H348.2L348.459 119.915C348.442 176.785 348.425 229.403 348.411 271.887L348.2 271.678C381.611 271.724 409.128 271.761 428.302 271.787C437.897 271.81 445.403 271.828 450.521 271.84C453.074 271.85 455.03 271.859 456.357 271.864C457.679 271.871 458.371 271.887 458.371 271.887C458.371 271.887 457.709 271.902 456.402 271.909C455.083 271.914 453.141 271.923 450.605 271.933C445.499 271.945 438.009 271.963 428.434 271.986C409.229 272.012 381.667 272.049 348.2 272.095L347.99 272.096V271.887C347.977 229.403 347.959 176.785 347.941 119.915V119.657H348.2H348.213C387.678 119.665 425.117 119.674 458.371 119.681H458.607L458.606 119.915C458.558 164.874 458.517 202.889 458.489 229.676C458.462 243.039 458.441 253.599 458.427 260.828C458.414 264.425 458.405 267.191 458.398 269.068C458.393 269.994 458.387 270.697 458.384 271.181C458.38 271.653 458.371 271.887 458.371 271.887Z" fill="#E1E1E1"/>
<path d="M445.14 205.734H359.303V200.257H445.14V205.734Z" fill="#F5F5F5"/>
<path d="M427.401 208.082H379.041V198.183H427.401V208.082Z" fill="#F5F5F5"/>
<path d="M395.567 184.766C398.101 184.766 399.323 183.197 399.323 180.328V164.188C399.323 161.319 398.101 159.75 395.521 159.75H391.721V184.766H395.567ZM395.612 156.567C400.545 156.567 402.808 159.526 402.808 164.367V180.193C402.808 184.991 400.545 187.949 395.612 187.949H388.191V156.567H395.612Z" fill="#E1E1E1"/>
<path d="M409.322 180.552C409.322 183.422 410.544 185.08 413.077 185.08C415.658 185.08 416.834 183.422 416.834 180.552V163.963C416.834 161.139 415.658 159.436 413.077 159.436C410.544 159.436 409.322 161.139 409.322 163.963V180.552ZM405.838 164.143C405.838 159.346 408.236 156.253 413.077 156.253C417.964 156.253 420.363 159.346 420.363 164.143V180.373C420.363 185.125 417.964 188.264 413.077 188.264C408.236 188.264 405.838 185.125 405.838 180.373V164.143Z" fill="#E1E1E1"/>
<path d="M397.848 250.578H394V216.361H397.848V250.578Z" fill="#E1E1E1"/>
<path d="M406.828 250.578V219.832H400.463V216.361H417.039V219.832H410.676V250.578H406.828Z" fill="#E1E1E1"/>
<path d="M362.17 159.165L366.348 174.12L370.025 169.985L376.151 180.307L372.093 162.55L368.3 166.814L362.17 159.165Z" fill="#F5F5F5"/>
<path d="M444.194 157.657L440.016 172.612L436.338 168.477L430.213 178.799L434.271 161.042L438.064 165.307L444.194 157.657Z" fill="#F5F5F5"/>
<path d="M402.698 127.302L397.258 145.144L403.668 143.282L403.206 157.656L410.582 137.046L403.969 138.967L402.698 127.302Z" fill="#E1E1E1"/>
<path d="M426.837 184.148H425.842V143.886H381.997V184.148H381.002V142.899H426.837V184.148Z" fill="#E1E1E1"/>
<path d="M426.837 256.869H381.002V215.62H381.997V255.883H425.842V215.62H426.837V256.869Z" fill="#E1E1E1"/>
<path d="M375.74 221.783H372.46C370.637 221.783 369.16 220.319 369.16 218.514V187.418C369.16 185.613 370.637 184.148 372.46 184.148H375.74C377.562 184.148 379.04 185.613 379.04 187.418V218.514C379.04 220.319 377.562 221.783 375.74 221.783Z" fill="#E1E1E1"/>
<path d="M433.982 221.783H430.702C428.879 221.783 427.402 220.319 427.402 218.514V187.418C427.402 185.613 428.879 184.148 430.702 184.148H433.982C435.805 184.148 437.282 185.613 437.282 187.418V218.514C437.282 220.319 435.805 221.783 433.982 221.783Z" fill="#E1E1E1"/>
<path d="M369.16 207.73H365.092V197.247H369.16V207.73Z" fill="#ECECEC"/>
<path d="M441.272 207.73H437.203V197.247H441.272V207.73Z" fill="#ECECEC"/>
<path d="M368.553 117.682L344.109 136.275L340.738 131.925L365.182 113.331L368.553 117.682Z" fill="#E1E1E1"/>
<path d="M465.096 260.726L440.652 279.32L437.281 274.97L461.724 256.376L465.096 260.726Z" fill="#E1E1E1"/>
<path d="M117.405 86.3705C117.397 86.3633 117.391 86.2572 117.384 86.0542C117.379 85.8213 117.371 85.5276 117.363 85.1608C117.351 84.3416 117.334 83.1989 117.312 81.7347C117.286 78.729 117.248 74.4074 117.199 68.9596L117.405 69.1636C102.237 69.1935 78.1165 69.2409 50.9819 69.2945C51.1306 69.1451 50.6397 69.6294 51.3157 68.9596V68.9637V68.973V68.9905V69.0255V69.0956V69.2358V69.516V70.0755V71.1915C51.3157 71.9344 51.3157 72.6753 51.3157 73.412C51.3147 74.8886 51.3147 76.3528 51.3147 77.8067C51.3126 80.7125 51.3105 83.5709 51.3084 86.3705L50.9777 86.0428C69.8932 86.1016 86.4448 86.1541 98.3154 86.1912C104.229 86.2314 108.973 86.2634 112.288 86.285C113.9 86.3035 115.163 86.318 116.066 86.3283C116.473 86.3365 116.798 86.3437 117.054 86.3489C117.28 86.3561 117.397 86.3633 117.405 86.3705C117.412 86.3777 117.308 86.3849 117.097 86.3922C116.851 86.3973 116.539 86.4045 116.149 86.4128C115.263 86.4231 114.025 86.4375 112.443 86.456C109.146 86.4777 104.427 86.5096 98.5463 86.5488C86.6175 86.5869 69.9858 86.6384 50.9777 86.6982L50.647 86.6992L50.6459 86.3705C50.6449 83.5709 50.6428 80.7125 50.6408 77.8067C50.6408 76.3528 50.6397 74.8886 50.6397 73.412C50.6397 72.6753 50.6397 71.9344 50.6397 71.1915L50.6387 70.0755V69.516V69.2358V69.0956V69.0255V68.9905V68.973V68.9637V68.9596C51.3168 68.2888 50.829 68.7741 50.9819 68.6237C78.1165 68.6773 102.237 68.7247 117.405 68.7556H117.613L117.611 68.9596C117.562 74.4589 117.523 78.8217 117.497 81.8563C117.475 83.3009 117.459 84.4282 117.447 85.2371C117.438 85.5884 117.431 85.8708 117.425 86.0944C117.418 86.284 117.412 86.3777 117.405 86.3705Z" fill="#E1E1E1"/>
<path d="M126.412 68.9588C126.404 68.9506 126.395 68.8383 126.386 68.627C126.38 68.3777 126.37 68.0747 126.36 67.7048C126.345 66.8485 126.326 65.6832 126.3 64.2138C126.268 61.1607 126.224 56.8494 126.168 51.5479L126.412 51.789C116.072 51.8127 102.006 51.8467 86.5029 51.8828C86.1982 52.1827 86.9116 51.4748 86.8388 51.549V51.5541V51.5634V51.5809V51.617V51.6881V51.8313V52.1177V52.6886L86.8378 53.8272C86.8378 54.5835 86.8378 55.3368 86.8367 56.0848C86.8367 57.581 86.8347 59.0596 86.8347 60.5167C86.8295 63.4286 86.8263 66.253 86.8222 68.9588L86.5008 68.6394C98.0219 68.7012 107.941 68.7538 115.051 68.7909C118.557 68.828 121.368 68.8579 123.368 68.8795C124.302 68.896 125.045 68.9094 125.61 68.9197C126.125 68.9331 126.398 68.9454 126.412 68.9588C126.425 68.9722 126.177 68.9846 125.687 68.998C125.14 69.0083 124.418 69.0217 123.511 69.0382C121.529 69.0598 118.744 69.0897 115.268 69.1268C108.105 69.1639 98.1103 69.2164 86.5008 69.2783L86.1784 69.2793L86.1774 68.9588C86.1743 66.253 86.1701 63.4286 86.1659 60.5167C86.1649 59.0596 86.1639 57.581 86.1628 56.0848C86.1618 55.3368 86.1618 54.5835 86.1618 53.8272V52.6886V52.1177V51.8313V51.6881V51.617V51.5809V51.5634V51.5541V51.549C86.0869 51.6201 86.8035 50.9122 86.5029 51.212C102.006 51.2491 116.072 51.2821 126.412 51.3068H126.657L126.655 51.5479C126.6 56.9112 126.555 61.2719 126.524 64.3601C126.498 65.8068 126.478 66.9537 126.464 67.7976C126.445 68.5755 126.428 68.9753 126.412 68.9588Z" fill="#E1E1E1"/>
<path d="M99.6468 381.256C99.6395 381.249 99.6333 381.143 99.626 380.94C99.6208 380.707 99.6135 380.413 99.6052 380.046C99.5927 379.227 99.5761 378.085 99.5542 376.62C99.5282 373.615 99.4897 369.293 99.4408 363.845L99.6468 364.049C84.4794 364.079 60.3587 364.127 33.2241 364.18C33.3728 364.031 32.8819 364.515 33.5579 363.845V363.849V363.859V363.876V363.911V363.981V364.121V364.402V364.961V366.077C33.5579 366.82 33.5579 367.561 33.5579 368.298C33.5569 369.774 33.5569 371.239 33.5558 372.692C33.5548 375.598 33.5527 378.457 33.5506 381.256L33.2199 380.929C52.1354 380.988 68.687 381.04 80.5576 381.077C86.471 381.117 91.2155 381.149 94.53 381.171C96.142 381.189 97.4045 381.204 98.3083 381.214C98.7149 381.222 99.0405 381.229 99.2963 381.235C99.522 381.242 99.6395 381.249 99.6468 381.256C99.6541 381.263 99.5501 381.271 99.3389 381.278C99.0935 381.283 98.7815 381.29 98.3915 381.298C97.5054 381.309 96.2668 381.323 94.6849 381.342C91.3881 381.363 86.6697 381.395 80.7885 381.435C68.8597 381.473 52.228 381.524 33.2199 381.584L32.8892 381.586L32.8881 381.256C32.8871 378.457 32.885 375.598 32.8829 372.692C32.8829 371.239 32.8819 369.774 32.8819 368.298C32.8819 367.561 32.8819 366.82 32.8819 366.077L32.8809 364.961V364.402V364.121V363.981V363.911V363.876V363.859V363.849V363.845C33.5589 363.174 33.0712 363.66 33.2241 363.509C60.3587 363.563 84.4794 363.611 99.6468 363.641H99.8548L99.8527 363.845C99.8038 369.346 99.7653 373.707 99.7393 376.742C99.7175 378.187 99.7009 379.314 99.6894 380.123C99.6801 380.474 99.6728 380.756 99.6676 380.98C99.6603 381.17 99.6541 381.263 99.6468 381.256Z" fill="#E1E1E1"/>
<path d="M108.654 363.844C108.646 363.835 108.637 363.723 108.629 363.512C108.622 363.262 108.612 362.96 108.602 362.59C108.587 361.732 108.568 360.568 108.542 359.099C108.511 356.045 108.466 351.734 108.411 346.433L108.654 346.674C98.3144 346.698 84.2484 346.732 68.7451 346.768C68.4404 347.067 69.1538 346.36 69.081 346.434V346.439V346.448V346.466V346.502V346.573V346.716V347.003V347.573L69.08 348.712C69.08 349.468 69.08 350.222 69.08 350.97C69.0789 352.466 69.0779 353.944 69.0768 355.401C69.0727 358.313 69.0685 361.138 69.0644 363.844L68.742 363.524C80.2641 363.585 90.1836 363.639 97.2931 363.676C100.799 363.713 103.61 363.743 105.61 363.764C106.544 363.781 107.287 363.794 107.852 363.804C108.367 363.818 108.641 363.83 108.654 363.844C108.668 363.857 108.419 363.869 107.929 363.883C107.382 363.893 106.66 363.906 105.753 363.923C103.771 363.945 100.986 363.974 97.5104 364.012C90.3469 364.049 80.3515 364.101 68.742 364.163L68.4206 364.164L68.4196 363.844C68.4164 361.138 68.4123 358.313 68.4081 355.401C68.4071 353.944 68.406 352.466 68.405 350.97C68.404 350.222 68.404 349.468 68.404 348.712V347.573V347.003V346.716V346.573V346.502V346.466V346.448V346.439V346.434C68.3291 346.505 69.0456 345.797 68.7451 346.097C84.2484 346.134 98.3144 346.167 108.654 346.192H108.899L108.897 346.433C108.842 351.796 108.798 356.157 108.766 359.245C108.74 360.692 108.721 361.838 108.706 362.682C108.687 363.461 108.671 363.86 108.654 363.844Z" fill="#E1E1E1"/>
<path d="M432.793 380.894C432.786 380.887 432.78 380.781 432.772 380.578C432.767 380.345 432.76 380.051 432.752 379.684C432.739 378.865 432.723 377.722 432.701 376.258C432.675 373.252 432.636 368.931 432.587 363.483L432.793 363.687C417.626 363.717 393.504 363.764 366.371 363.818C366.52 363.669 366.028 364.153 366.704 363.483V363.487V363.496V363.514V363.549V363.619V363.759V364.039V364.599V365.715C366.704 366.458 366.704 367.199 366.704 367.935C366.703 369.412 366.703 370.876 366.702 372.33C366.701 375.236 366.699 378.094 366.697 380.894L366.366 380.566C385.282 380.626 401.833 380.678 413.704 380.715C419.618 380.755 424.362 380.787 427.676 380.808C429.288 380.827 430.552 380.841 431.455 380.852C431.861 380.86 432.187 380.867 432.443 380.872C432.667 380.88 432.786 380.887 432.793 380.894C432.801 380.901 432.697 380.908 432.485 380.916C432.24 380.921 431.928 380.928 431.538 380.936C430.652 380.947 429.413 380.961 427.831 380.979C424.535 381.001 419.816 381.033 413.935 381.072C402.006 381.11 385.374 381.162 366.366 381.222L366.036 381.223L366.035 380.894C366.034 378.094 366.032 375.236 366.029 372.33C366.029 370.876 366.028 369.412 366.028 367.935C366.028 367.199 366.028 366.458 366.028 365.715L366.027 364.599V364.039V363.759V363.619V363.549V363.514V363.496V363.487V363.483C366.704 362.812 366.218 363.298 366.371 363.147C393.504 363.201 417.626 363.249 432.793 363.279H433.001L432.999 363.483C432.95 368.982 432.912 373.345 432.886 376.38C432.864 377.824 432.847 378.952 432.836 379.76C432.827 380.112 432.819 380.393 432.814 380.618C432.807 380.807 432.801 380.901 432.793 380.894Z" fill="#E1E1E1"/>
<path d="M441.801 363.482C441.792 363.474 441.784 363.362 441.775 363.15C441.768 362.901 441.759 362.598 441.749 362.228C441.734 361.371 441.714 360.207 441.688 358.737C441.657 355.684 441.612 351.373 441.557 346.071L441.801 346.312C431.461 346.336 417.395 346.37 401.892 346.406C401.587 346.706 402.3 345.998 402.227 346.072V346.078V346.087V346.104V346.14V346.211V346.355V346.641V347.212L402.226 348.351C402.226 349.107 402.226 349.86 402.226 350.608C402.225 352.104 402.223 353.583 402.223 355.04C402.219 357.952 402.215 360.776 402.211 363.482L401.889 363.163C413.411 363.225 423.33 363.277 430.44 363.314C433.945 363.351 436.757 363.381 438.756 363.403C439.69 363.419 440.434 363.433 440.999 363.443C441.513 363.457 441.787 363.469 441.801 363.482C441.814 363.496 441.565 363.508 441.076 363.521C440.529 363.532 439.807 363.545 438.9 363.562C436.918 363.583 434.133 363.613 430.657 363.65C423.493 363.687 413.499 363.74 401.889 363.802L401.567 363.803L401.566 363.482C401.563 360.776 401.559 357.952 401.555 355.04C401.554 353.583 401.553 352.104 401.551 350.608C401.551 349.86 401.55 349.107 401.55 348.351V347.212V346.641V346.355V346.211V346.14V346.104V346.087V346.078V346.072C401.476 346.143 402.192 345.436 401.892 345.735C417.395 345.773 431.461 345.806 441.801 345.83H442.046L442.044 346.071C441.989 351.435 441.944 355.795 441.913 358.884C441.887 360.33 441.867 361.477 441.853 362.321C441.834 363.1 441.817 363.499 441.801 363.482Z" fill="#E1E1E1"/>
<path d="M435.486 416.07H450.664V470.186H435.486V416.07Z" fill="#ECECEC"/>
<path d="M419.533 420.403V403.575C419.533 402.292 420.583 401.253 421.878 401.253H464.269C465.564 401.253 466.614 402.292 466.614 403.575V420.403C466.614 421.686 465.564 422.727 464.269 422.727H421.878C420.583 422.727 419.533 421.686 419.533 420.403Z" fill="#ECECEC"/>
<path d="M419.534 420.401C419.581 420.387 419.486 420.904 419.963 421.641C420.206 421.991 420.62 422.38 421.231 422.55C421.83 422.713 422.603 422.597 423.442 422.62C426.855 422.599 431.732 422.57 437.745 422.535C443.794 422.519 450.982 422.499 458.959 422.478C459.956 422.476 460.967 422.475 461.989 422.473C462.5 422.472 463.014 422.472 463.53 422.471L464.304 422.467C464.536 422.467 464.766 422.419 464.983 422.342C465.88 422.025 466.457 421.108 466.353 420.101C466.352 419.044 466.351 417.978 466.35 416.902C466.348 412.597 466.346 408.142 466.345 403.577C466.364 402.551 465.509 401.618 464.491 401.53C463.412 401.507 462.24 401.523 461.131 401.518C458.887 401.516 456.676 401.515 454.503 401.514C450.159 401.508 445.968 401.503 441.974 401.498C437.983 401.489 434.189 401.481 430.636 401.473C428.862 401.468 427.147 401.462 425.499 401.458C424.675 401.455 423.867 401.452 423.078 401.449C422.682 401.448 422.291 401.446 421.904 401.445C421.546 401.441 421.2 401.526 420.889 401.68C420.271 401.993 419.837 402.603 419.743 403.253C419.686 403.908 419.722 404.642 419.707 405.303C419.7 406.65 419.692 407.92 419.686 409.109C419.667 411.477 419.653 413.521 419.639 415.206C419.619 416.852 419.601 418.143 419.588 419.058C419.578 419.475 419.569 419.806 419.562 420.06C419.553 420.286 419.544 420.401 419.534 420.401C419.525 420.401 419.516 420.286 419.506 420.06C419.5 419.806 419.491 419.475 419.48 419.058C419.468 418.143 419.451 416.852 419.429 415.206C419.416 413.521 419.401 411.477 419.382 409.109C419.376 407.92 419.369 406.65 419.362 405.303C419.373 404.618 419.324 403.961 419.384 403.2C419.486 402.437 419.987 401.718 420.714 401.344C421.075 401.158 421.491 401.054 421.904 401.056C422.291 401.055 422.682 401.053 423.078 401.052C423.867 401.049 424.675 401.046 425.499 401.044C427.147 401.039 428.862 401.034 430.636 401.029C434.189 401.02 437.983 401.012 441.974 401.004C445.968 400.999 450.159 400.994 454.503 400.987C456.676 400.986 458.887 400.985 461.131 400.984C462.265 400.99 463.355 400.968 464.549 400.998C465.833 401.107 466.912 402.283 466.886 403.577C466.883 408.142 466.882 412.597 466.88 416.902C466.879 417.978 466.878 419.044 466.877 420.101C467.006 421.211 466.28 422.465 465.161 422.823C464.889 422.92 464.601 422.977 464.312 422.979H463.53C463.014 422.979 462.5 422.977 461.989 422.976C460.967 422.975 459.956 422.973 458.959 422.972C450.982 422.951 443.794 422.931 437.745 422.915C431.732 422.879 426.855 422.85 423.442 422.829C423.02 422.825 422.622 422.821 422.247 422.817C421.88 422.818 421.504 422.811 421.184 422.703C420.535 422.503 420.112 422.076 419.871 421.701C419.632 421.314 419.557 420.971 419.534 420.746C419.511 420.518 419.534 420.401 419.534 420.401Z" fill="#E1E1E1"/>
<path d="M419.533 485.256V468.429C419.533 467.146 420.583 466.105 421.878 466.105H464.269C465.564 466.105 466.614 467.146 466.614 468.429V485.256C466.614 486.539 465.564 487.58 464.269 487.58H421.878C420.583 487.58 419.533 486.539 419.533 485.256Z" fill="#ECECEC"/>
<path d="M419.534 485.257C419.581 485.241 419.486 485.76 419.963 486.497C420.206 486.846 420.62 487.235 421.231 487.405C421.83 487.567 422.603 487.453 423.442 487.475C426.855 487.455 431.732 487.426 437.745 487.39C443.794 487.374 450.982 487.355 458.959 487.333C459.956 487.331 460.967 487.33 461.989 487.328C462.5 487.327 463.014 487.327 463.53 487.326L464.304 487.323C464.536 487.323 464.766 487.274 464.983 487.197C465.88 486.881 466.457 485.964 466.353 484.956C466.352 483.9 466.351 482.833 466.35 481.758C466.348 477.453 466.346 472.997 466.345 468.432C466.364 467.406 465.509 466.473 464.491 466.386C463.412 466.362 462.24 466.379 461.131 466.374C458.887 466.371 456.676 466.37 454.503 466.369C450.159 466.363 445.968 466.358 441.974 466.353C437.983 466.345 434.189 466.336 430.636 466.328C428.862 466.323 427.147 466.318 425.499 466.313C424.675 466.311 423.867 466.308 423.078 466.304C422.682 466.303 422.291 466.301 421.904 466.3C421.546 466.296 421.2 466.382 420.889 466.535C420.271 466.849 419.837 467.459 419.743 468.109C419.686 468.763 419.722 469.497 419.707 470.158C419.7 471.504 419.692 472.774 419.686 473.965C419.667 476.332 419.653 478.376 419.639 480.061C419.619 481.707 419.601 482.998 419.588 483.913C419.578 484.331 419.569 484.661 419.562 484.916C419.553 485.142 419.544 485.257 419.534 485.257C419.525 485.257 419.516 485.142 419.506 484.916C419.5 484.661 419.491 484.331 419.48 483.913C419.468 482.998 419.451 481.707 419.429 480.061C419.416 478.376 419.401 476.332 419.382 473.965C419.376 472.774 419.369 471.504 419.362 470.158C419.373 469.473 419.324 468.817 419.384 468.055C419.486 467.294 419.987 466.573 420.714 466.199C421.075 466.014 421.491 465.91 421.904 465.912C422.291 465.911 422.682 465.909 423.078 465.908C423.867 465.905 424.675 465.902 425.499 465.9C427.147 465.894 428.862 465.889 430.636 465.884C434.189 465.876 437.983 465.868 441.974 465.859C445.968 465.854 450.159 465.849 454.503 465.843C456.676 465.842 458.887 465.841 461.131 465.839C462.265 465.846 463.355 465.823 464.549 465.853C465.833 465.962 466.912 467.138 466.886 468.432C466.883 472.997 466.882 477.453 466.88 481.758C466.879 482.833 466.878 483.9 466.877 484.956C467.006 486.067 466.28 487.321 465.161 487.678C464.889 487.775 464.601 487.833 464.312 487.833L463.53 487.834C463.014 487.834 462.5 487.833 461.989 487.832C460.967 487.831 459.956 487.829 458.959 487.827C450.982 487.805 443.794 487.787 437.745 487.77C431.732 487.734 426.855 487.705 423.442 487.685C423.02 487.68 422.622 487.676 422.247 487.672C421.88 487.673 421.504 487.666 421.184 487.559C420.535 487.359 420.112 486.931 419.871 486.556C419.632 486.17 419.557 485.827 419.534 485.601C419.511 485.373 419.534 485.257 419.534 485.257Z" fill="#E1E1E1"/>
<path d="M453.354 487.273C453.205 487.273 453.084 482.604 453.084 476.844C453.084 471.081 453.205 466.413 453.354 466.413C453.504 466.413 453.625 471.081 453.625 476.844C453.625 482.604 453.504 487.273 453.354 487.273Z" fill="#E1E1E1"/>
<path d="M433.643 487.273C433.494 487.273 433.373 482.604 433.373 476.844C433.373 471.081 433.494 466.413 433.643 466.413C433.793 466.413 433.914 471.081 433.914 476.844C433.914 482.604 433.793 487.273 433.643 487.273Z" fill="#E1E1E1"/>
<path d="M453.354 422.488C453.205 422.488 453.084 417.818 453.084 412.058C453.084 406.296 453.205 401.628 453.354 401.628C453.504 401.628 453.625 406.296 453.625 412.058C453.625 417.818 453.504 422.488 453.354 422.488Z" fill="#E1E1E1"/>
<path d="M433.643 422.488C433.494 422.488 433.373 417.818 433.373 412.058C433.373 406.296 433.494 401.628 433.643 401.628C433.793 401.628 433.914 406.296 433.914 412.058C433.914 417.818 433.793 422.488 433.643 422.488Z" fill="#E1E1E1"/>
</g>
<mask id="mask1_3040_18" style="mask-type:luminance" maskUnits="userSpaceOnUse" x="0" y="0" width="520" height="516">
<path d="M0 0.396179H520V515.604H0V0.396179Z" fill="white"/>
</mask>
<g mask="url(#mask1_3040_18)">
<path d="M77.0497 124.986L78.2405 121.212C88.2838 89.4025 114.756 65.2269 147.556 59.3422C151.773 58.5859 156.046 58.1304 160.34 57.9975C191.256 57.0351 222.294 72.7798 239.913 98.3629C250.274 113.408 256.773 132.062 271.874 142.32C291.526 155.673 317.775 149.816 340.56 143.485C363.343 137.153 389.627 131.359 409.221 144.797C421.492 153.213 428.357 167.773 431.179 182.376C438.651 221.039 420.323 261.732 390.421 287.05C360.519 312.369 320.711 323.727 281.494 325.414C226.556 327.774 169.629 311.257 128.659 274.249C87.6868 237.24 65.0512 178.695 77.0497 124.986Z" fill="#F5F5F5"/>
</g>
<mask id="mask2_3040_18" style="mask-type:luminance" maskUnits="userSpaceOnUse" x="0" y="0" width="520" height="516">
<path d="M0 0.396179H520V515.604H0V0.396179Z" fill="white"/>
</mask>
<g mask="url(#mask2_3040_18)">
<path d="M487.118 487.58C487.118 487.728 385.426 487.848 260.012 487.848C134.553 487.848 32.8828 487.728 32.8828 487.58C32.8828 487.431 134.553 487.312 260.012 487.312C385.426 487.312 487.118 487.431 487.118 487.58Z" fill="#1A2E35"/>
</g>
<path d="M410.337 471.529H355.719V455.732H410.337V471.529Z" fill="#375A64"/>
<mask id="mask3_3040_18" style="mask-type:luminance" maskUnits="userSpaceOnUse" x="0" y="0" width="520" height="516">
<path d="M0 0.396179H520V515.604H0V0.396179Z" fill="white"/>
</mask>
<g mask="url(#mask3_3040_18)">
<path d="M360.088 487.58H343.104C341.809 487.58 340.76 486.54 340.76 485.256V443.257C340.76 441.974 341.809 440.933 343.104 440.933H360.088C361.383 440.933 362.433 441.974 362.433 443.257V485.256C362.433 486.54 361.383 487.58 360.088 487.58Z" fill="#375A64"/>
<path d="M360.089 487.581C360.073 487.534 360.596 487.628 361.34 487.156C361.693 486.915 362.086 486.505 362.257 485.9C362.421 485.307 362.305 484.54 362.328 483.709C362.308 480.328 362.278 475.495 362.242 469.538C362.226 463.544 362.206 456.423 362.185 448.52C362.182 447.531 362.181 446.53 362.179 445.517C362.178 445.011 362.178 444.502 362.177 443.99L362.174 443.223C362.174 442.994 362.125 442.766 362.047 442.55C361.728 441.662 360.802 441.089 359.785 441.193C358.719 441.194 357.643 441.195 356.557 441.197C352.212 441.199 347.715 441.201 343.108 441.202C342.072 441.182 341.131 442.03 341.042 443.038C341.018 444.107 341.035 445.269 341.029 446.367C341.028 448.591 341.027 450.781 341.026 452.934C341.02 457.238 341.014 461.391 341.009 465.347C341.001 469.302 340.992 473.061 340.984 476.581C340.979 478.339 340.974 480.038 340.969 481.671C340.966 482.487 340.963 483.287 340.96 484.07C340.959 484.462 340.957 484.849 340.956 485.231C340.952 485.588 341.038 485.93 341.193 486.238C341.509 486.851 342.125 487.281 342.781 487.374C343.442 487.43 344.182 487.394 344.85 487.41C346.208 487.417 347.49 487.424 348.692 487.43C351.082 487.448 353.144 487.463 354.844 487.477C356.506 487.497 357.809 487.515 358.733 487.526C359.154 487.537 359.488 487.547 359.745 487.553C359.972 487.562 360.089 487.571 360.089 487.581C360.089 487.59 359.972 487.599 359.745 487.608C359.488 487.615 359.154 487.624 358.733 487.634C357.809 487.647 356.506 487.663 354.844 487.685C353.145 487.697 351.082 487.713 348.692 487.73C347.49 487.737 346.208 487.743 344.85 487.752C344.158 487.74 343.496 487.789 342.727 487.73C341.958 487.628 341.232 487.132 340.854 486.412C340.666 486.055 340.562 485.642 340.564 485.231C340.563 484.849 340.561 484.462 340.56 484.07C340.557 483.287 340.554 482.487 340.552 481.671C340.546 480.038 340.541 478.339 340.536 476.581C340.528 473.061 340.519 469.302 340.511 465.347C340.506 461.391 340.501 457.238 340.494 452.934C340.493 450.781 340.492 448.591 340.49 446.367C340.496 445.244 340.475 444.164 340.505 442.981C340.615 441.709 341.802 440.64 343.108 440.666C347.715 440.667 352.212 440.669 356.557 440.671C357.643 440.672 358.719 440.673 359.785 440.674C360.906 440.546 362.172 441.266 362.533 442.374C362.631 442.644 362.689 442.93 362.689 443.216L362.69 443.99C362.69 444.502 362.689 445.011 362.688 445.517C362.687 446.53 362.685 447.531 362.684 448.52C362.662 456.423 362.642 463.544 362.626 469.538C362.589 475.495 362.56 480.328 362.539 483.709C362.535 484.126 362.531 484.521 362.527 484.893C362.528 485.257 362.519 485.629 362.412 485.946C362.211 486.589 361.779 487.009 361.4 487.247C361.01 487.484 360.664 487.558 360.436 487.58C360.206 487.603 360.089 487.581 360.089 487.581Z" fill="#1A2E35"/>
<path d="M425.546 487.58H408.562C407.267 487.58 406.217 486.54 406.217 485.256V443.257C406.217 441.974 407.267 440.933 408.562 440.933H425.546C426.841 440.933 427.891 441.974 427.891 443.257V485.256C427.891 486.54 426.841 487.58 425.546 487.58Z" fill="#375A64"/>
<path d="M425.548 487.581C425.532 487.534 426.055 487.628 426.799 487.156C427.152 486.915 427.545 486.505 427.716 485.9C427.88 485.307 427.764 484.54 427.787 483.709C427.767 480.328 427.737 475.495 427.701 469.538C427.685 463.544 427.665 456.423 427.644 448.52C427.641 447.531 427.64 446.53 427.638 445.517C427.637 445.011 427.637 444.502 427.636 443.99L427.633 443.223C427.633 442.994 427.584 442.766 427.506 442.55C427.187 441.662 426.261 441.089 425.244 441.193C424.178 441.194 423.102 441.195 422.016 441.197C417.671 441.199 413.174 441.201 408.567 441.202C407.531 441.182 406.59 442.03 406.501 443.038C406.477 444.107 406.494 445.269 406.488 446.367C406.487 448.591 406.486 450.781 406.485 452.934C406.478 457.238 406.473 461.391 406.468 465.347C406.46 469.302 406.451 473.061 406.443 476.581C406.438 478.339 406.433 480.038 406.428 481.671C406.425 482.487 406.422 483.287 406.419 484.07C406.418 484.462 406.416 484.849 406.415 485.231C406.411 485.588 406.497 485.93 406.652 486.238C406.968 486.851 407.584 487.281 408.24 487.374C408.901 487.43 409.641 487.394 410.309 487.41C411.667 487.417 412.949 487.424 414.151 487.43C416.54 487.448 418.604 487.463 420.304 487.477C421.965 487.497 423.268 487.515 424.192 487.526C424.613 487.537 424.947 487.547 425.204 487.553C425.431 487.562 425.548 487.571 425.548 487.581C425.548 487.59 425.431 487.599 425.204 487.608C424.947 487.615 424.613 487.624 424.192 487.634C423.268 487.647 421.965 487.663 420.304 487.685C418.604 487.697 416.54 487.713 414.151 487.73C412.949 487.737 411.667 487.743 410.309 487.752C409.617 487.74 408.955 487.789 408.186 487.73C407.417 487.628 406.691 487.132 406.313 486.412C406.125 486.055 406.021 485.642 406.023 485.231C406.022 484.849 406.02 484.462 406.019 484.07C406.016 483.287 406.013 482.487 406.01 481.671C406.005 480.038 406 478.339 405.995 476.581C405.987 473.061 405.978 469.302 405.97 465.347C405.965 461.391 405.96 457.238 405.953 452.934C405.952 450.781 405.951 448.591 405.949 446.367C405.955 445.244 405.934 444.164 405.964 442.981C406.074 441.709 407.261 440.64 408.567 440.666C413.174 440.667 417.671 440.669 422.016 440.671C423.102 440.672 424.178 440.673 425.244 440.674C426.365 440.546 427.631 441.266 427.992 442.374C428.09 442.644 428.148 442.93 428.148 443.216L428.149 443.99C428.149 444.502 428.148 445.011 428.147 445.517C428.146 446.53 428.144 447.531 428.143 448.52C428.121 456.423 428.101 463.544 428.084 469.538C428.048 475.495 428.019 480.328 427.998 483.709C427.994 484.126 427.99 484.521 427.986 484.893C427.987 485.257 427.979 485.629 427.871 485.946C427.67 486.589 427.238 487.009 426.859 487.247C426.469 487.484 426.123 487.558 425.895 487.58C425.665 487.603 425.548 487.581 425.548 487.581Z" fill="#1A2E35"/>
<path d="M427.582 454.072C427.582 454.22 422.869 454.34 417.055 454.34C411.24 454.34 406.527 454.22 406.527 454.072C406.527 453.924 411.24 453.804 417.055 453.804C422.869 453.804 427.582 453.924 427.582 454.072Z" fill="#1A2E35"/>
<path d="M427.582 473.601C427.582 473.75 422.869 473.869 417.055 473.869C411.24 473.869 406.527 473.75 406.527 473.601C406.527 473.453 411.24 473.333 417.055 473.333C422.869 473.333 427.582 473.453 427.582 473.601Z" fill="#1A2E35"/>
<path d="M362.195 454.072C362.195 454.22 357.482 454.34 351.669 454.34C345.853 454.34 341.141 454.22 341.141 454.072C341.141 453.924 345.853 453.804 351.669 453.804C357.482 453.804 362.195 453.924 362.195 454.072Z" fill="#1A2E35"/>
<path d="M362.195 473.601C362.195 473.75 357.482 473.869 351.669 473.869C345.853 473.869 341.141 473.75 341.141 473.601C341.141 473.453 345.853 473.333 351.669 473.333C357.482 473.333 362.195 473.453 362.195 473.601Z" fill="#1A2E35"/>
</g>
<mask id="mask4_3040_18" style="mask-type:luminance" maskUnits="userSpaceOnUse" x="0" y="0" width="520" height="516">
<path d="M0 0.396179H520V515.604H0V0.396179Z" fill="white"/>
</mask>
<g mask="url(#mask4_3040_18)">
<path d="M282.922 204.729C282.922 204.729 309.432 210.721 312.192 229.988C315.187 250.901 309.215 293.005 309.96 300.006C310.703 307.009 310.802 312.738 310.802 312.738L364.636 341.28L353.673 355.684C353.673 355.684 305.868 353.81 293.222 344.597C280.576 335.384 277.973 323.96 278.344 313.642C278.716 303.323 278.311 246.94 278.311 246.94L282.922 204.729Z" fill="#C17560"/>
<path d="M301.243 242.649C301.373 242.741 299.339 245.643 297.154 249.411C294.955 253.173 293.44 256.37 293.294 256.306C293.229 256.277 293.524 255.439 294.109 254.127C294.694 252.817 295.581 251.039 296.685 249.143C297.788 247.248 298.897 245.597 299.748 244.439C300.601 243.28 301.185 242.607 301.243 242.649Z" fill="#7C4236"/>
<path d="M443.074 338.036C443.074 350.054 435.914 359.797 427.082 359.797C423.451 359.797 413.933 359.758 413.933 359.758C410.087 355.783 411.09 345.113 411.09 338.036C411.09 331.487 409.066 320.391 412.43 316.402C412.43 316.402 423.061 316.274 427.082 316.274C435.914 316.274 443.074 326.017 443.074 338.036Z" fill="#FF735D"/>
<mask id="mask5_3040_18" style="mask-type:luminance" maskUnits="userSpaceOnUse" x="410" y="316" width="34" height="44">
<path d="M410.486 316.273H443.075V359.797H410.486V316.273Z" fill="white"/>
</mask>
<g mask="url(#mask5_3040_18)">
<g opacity="0.300003">
<path d="M443.074 338.036C443.074 350.054 435.914 359.797 427.082 359.797C423.451 359.797 413.933 359.758 413.933 359.758C410.087 355.783 411.09 345.113 411.09 338.036C411.09 331.487 409.066 320.391 412.43 316.402C412.43 316.402 423.061 316.274 427.082 316.274C435.914 316.274 443.074 326.017 443.074 338.036Z" fill="black"/>
</g>
</g>
<path d="M426.26 337.996C426.26 350.015 420.742 359.758 413.934 359.758C407.128 359.758 401.609 350.015 401.609 337.996C401.609 325.978 407.128 316.235 413.934 316.235C420.742 316.235 426.26 325.978 426.26 337.996Z" fill="#FF735D"/>
<path d="M421.191 345.523H376.444C374.494 345.523 372.912 343.957 372.912 342.025V337.728C372.912 335.796 374.494 334.23 376.444 334.23H421.191C423.141 334.23 424.722 335.796 424.722 337.728V342.025C424.722 343.957 423.141 345.523 421.191 345.523Z" fill="#FF735D"/>
<path d="M417.025 327.931C415.843 325.868 412.994 322.057 412.994 322.057C408.685 317.892 404.862 321.527 404.862 321.527C402.74 319.792 400.161 320.426 398.399 322.37C393.531 319.881 390.893 325.727 390.893 325.727C381.507 325.195 383.579 334.23 383.579 334.23C383.579 334.23 386.225 334.447 386.247 334.66C386.605 338.134 381.633 344.839 381.633 344.839L370.971 355.683L388.14 355.413C391.135 356.467 393.886 356.212 396.105 353.133C400.831 356.576 403.056 352.307 403.056 352.307C407.504 355.267 410.111 350.792 410.111 350.792C410.111 350.792 414.586 352.917 415.98 344.452C416.487 341.364 418.208 329.993 417.025 327.931Z" fill="#C17560"/>
<path d="M393.085 344.197C393.01 344.163 393.502 343.032 394.192 341.172C394.879 339.314 395.742 336.708 396.401 333.766C396.56 333.036 396.664 332.322 396.596 331.652C396.513 330.98 396.322 330.339 396.019 329.792C395.41 328.689 394.463 327.95 393.648 327.409C391.983 326.344 390.845 325.813 390.892 325.728C390.909 325.695 391.203 325.797 391.721 326.017C392.236 326.241 392.981 326.57 393.855 327.09C394.715 327.605 395.753 328.346 396.455 329.551C396.803 330.152 397.026 330.852 397.124 331.598C397.208 332.356 397.094 333.128 396.93 333.878C396.263 336.862 395.333 339.473 394.549 341.312C393.762 343.15 393.146 344.226 393.085 344.197Z" fill="#7C4236"/>
<path d="M402.323 342.007C402.239 341.978 402.68 340.796 403.12 338.829C403.34 337.784 403.585 336.612 403.852 335.341C404.139 334.033 404.517 332.601 404.549 331.099C404.576 329.613 403.982 328.239 403.223 327.188C402.46 326.12 401.555 325.312 400.808 324.629C399.274 323.296 398.343 322.429 398.399 322.369C398.446 322.321 399.449 323.074 401.057 324.342C401.843 324.995 402.797 325.788 403.628 326.898C404.453 327.997 405.119 329.469 405.091 331.106C405.055 332.709 404.649 334.153 404.337 335.453C404.018 336.75 403.763 337.934 403.493 338.919C403.224 339.905 402.941 340.685 402.723 341.212C402.504 341.74 402.356 342.02 402.323 342.007Z" fill="#7C4236"/>
<path d="M410.135 340.07C410.063 340.048 410.364 338.838 410.907 336.898C411.197 335.88 411.523 334.74 411.875 333.502C412.213 332.238 412.518 330.798 412.209 329.353C411.905 327.905 411.102 326.667 410.231 325.707C409.352 324.742 408.385 324.03 407.557 323.466C405.879 322.359 404.774 321.749 404.82 321.672C404.837 321.64 405.13 321.757 405.643 322.003C406.155 322.25 406.891 322.618 407.766 323.148C408.634 323.681 409.654 324.377 410.599 325.372C411.532 326.36 412.407 327.666 412.739 329.243C413.076 330.833 412.725 332.358 412.357 333.634C411.97 334.92 411.588 336.049 411.273 337.009C410.636 338.92 410.207 340.092 410.135 340.07Z" fill="#7C4236"/>
<path d="M310.957 312.785C311.046 312.94 307.588 314.481 304.286 317.644C300.95 320.772 299.243 324.125 299.09 324.031C299.034 324.003 299.382 323.133 300.171 321.84C300.958 320.547 302.226 318.857 303.911 317.256C305.6 315.659 307.361 314.478 308.699 313.759C310.038 313.035 310.931 312.728 310.957 312.785Z" fill="#7C4236"/>
<path d="M382.814 339.653C382.814 351.671 375.654 361.414 366.822 361.414C363.192 361.414 353.675 361.375 353.675 361.375C349.828 357.401 350.83 346.732 350.83 339.653C350.83 333.104 348.806 322.008 352.17 318.019C352.17 318.019 362.802 317.891 366.822 317.891C375.654 317.891 382.814 327.634 382.814 339.653Z" fill="#FF735D"/>
<mask id="mask6_3040_18" style="mask-type:luminance" maskUnits="userSpaceOnUse" x="350" y="317" width="33" height="45">
<path d="M350.227 317.89H382.814V361.414H350.227V317.89Z" fill="white"/>
</mask>
<g mask="url(#mask6_3040_18)">
<g opacity="0.300003">
<path d="M382.814 339.653C382.814 351.671 375.654 361.414 366.822 361.414C363.192 361.414 353.675 361.375 353.675 361.375C349.828 357.401 350.83 346.732 350.83 339.653C350.83 333.104 348.806 322.008 352.17 318.019C352.17 318.019 362.802 317.891 366.822 317.891C375.654 317.891 382.814 327.634 382.814 339.653Z" fill="black"/>
</g>
</g>
<path d="M365.999 339.614C365.999 351.632 360.481 361.375 353.674 361.375C346.866 361.375 341.348 351.632 341.348 339.614C341.348 327.595 346.866 317.852 353.674 317.852C360.481 317.852 365.999 327.595 365.999 339.614Z" fill="#FF735D"/>
<path d="M364.196 339.613C364.187 339.613 364.175 339.529 364.162 339.366C364.148 339.171 364.134 338.933 364.114 338.642C364.097 338.005 364.012 337.07 363.884 335.869C363.793 335.269 363.692 334.605 363.582 333.884C363.411 333.17 363.298 332.377 363.046 331.557C362.615 329.902 361.968 328.047 360.925 326.165C360.383 325.24 359.777 324.284 358.982 323.427C358.225 322.541 357.254 321.774 356.138 321.234C355.023 320.698 353.707 320.464 352.408 320.708C351.106 320.95 349.887 321.664 348.856 322.609C346.77 324.514 345.369 327.256 344.434 330.182C343.499 333.126 343.074 336.335 343.046 339.611C343.074 342.888 343.498 346.097 344.434 349.042C345.369 351.969 346.77 354.711 348.856 356.617C349.887 357.562 351.107 358.276 352.408 358.518C353.708 358.762 355.024 358.528 356.139 357.991C357.254 357.451 358.226 356.685 358.983 355.798C359.777 354.94 360.384 353.985 360.925 353.06C361.969 351.178 362.615 349.323 363.046 347.668C363.298 346.849 363.411 346.056 363.582 345.342C363.692 344.62 363.793 343.957 363.884 343.356C364.012 342.155 364.097 341.22 364.114 340.584C364.134 340.292 364.148 340.055 364.162 339.86C364.175 339.696 364.187 339.613 364.196 339.613C364.206 339.613 364.213 339.696 364.217 339.86C364.219 340.056 364.221 340.294 364.223 340.587C364.242 341.227 364.191 342.167 364.094 343.379C364.03 343.982 363.933 344.652 363.836 345.385C363.679 346.108 363.58 346.91 363.339 347.743C362.933 349.421 362.303 351.31 361.261 353.242C360.718 354.193 360.109 355.177 359.296 356.073C358.521 356.994 357.516 357.81 356.333 358.392C355.152 358.973 353.727 359.239 352.319 358.982C350.91 358.727 349.606 357.968 348.52 356.984C346.325 354.992 344.891 352.183 343.928 349.2C342.967 346.197 342.532 342.938 342.504 339.611C342.533 336.285 342.968 333.025 343.929 330.024C344.892 327.042 346.326 324.233 348.52 322.242C349.605 321.258 350.909 320.499 352.319 320.244C353.726 319.987 355.151 320.252 356.333 320.834C357.515 321.416 358.52 322.231 359.295 323.153C360.108 324.047 360.718 325.032 361.261 325.983C362.303 327.915 362.932 329.803 363.339 331.483C363.58 332.315 363.679 333.117 363.836 333.84C363.933 334.573 364.029 335.243 364.094 335.847C364.191 337.059 364.242 337.999 364.223 338.639C364.221 338.932 364.219 339.17 364.217 339.366C364.213 339.529 364.206 339.613 364.196 339.613Z" fill="#1A2E35"/>
<path d="M353.311 341.847L352.568 341.9L352.665 343.22L351.637 343.293L351.541 341.973L349.088 342.147L349.018 341.167L350.875 337.024L351.982 336.946L350.265 340.871L351.487 340.784L351.402 339.606L352.398 339.536L352.483 340.713L353.224 340.661L353.311 341.847Z" fill="#1A2E35"/>
<path d="M355.3 341.127L354.86 341.827L354.95 343.058L353.936 343.129L353.453 336.462L354.467 336.39L354.741 340.164L356.083 338.118L357.293 338.031L355.984 340.185L357.773 342.857L356.544 342.944L355.3 341.127Z" fill="#1A2E35"/>
<path d="M242.963 74.315C248.016 70.3932 248.34 62.391 244.894 57.0246C241.449 51.6582 235.206 48.6308 228.943 47.2367C219.251 45.08 208.143 46.637 201.131 53.6088C194.12 60.5806 193.253 73.5823 200.935 79.8225C196.503 80.1656 191.824 80.5943 188.216 83.1672C184.61 85.7402 182.753 91.256 185.585 94.6492C188.812 98.5153 195.012 97.0655 199.743 95.2787C196.632 97.2283 196.146 101.935 198.184 104.973C200.222 108.01 204.103 109.441 207.784 109.397C211.465 109.355 215.004 108.049 218.378 106.595" fill="#1A2E35"/>
<path d="M227.494 75.8116C229.321 73.6426 231.193 71.4426 233.601 69.9269C236.008 68.4122 239.076 67.662 241.753 68.6347C243.013 69.0922 244.214 70.0423 244.445 71.3519C244.676 72.6616 243.465 74.1629 242.163 73.8394L241.843 74.0321C238.474 76.1269 235.064 78.1547 231.616 80.1156C230.747 80.6092 229.849 81.1089 228.856 81.2408C227.863 81.3727 226.743 81.0533 226.209 80.2135C225.328 78.8255 226.433 77.0707 227.494 75.8116Z" fill="#FF735D"/>
<path d="M220.356 84.4489C232.111 74.2056 246.383 69.5367 261.87 71.8109C270.606 73.0948 273.913 75.4791 279.908 78.183C285.903 80.8868 291.009 85.1496 293.874 91.026C297.278 98.0061 299.844 105.619 299.418 113.359C298.978 121.31 298.533 129.313 296.632 137.051C294.731 144.787 291.267 152.325 285.551 157.923L264.855 158.093C253.681 156.649 234.573 167.581 224.167 163.297C213.76 159.015 207.003 139.802 205.594 128.265C203.715 112.867 208.601 94.6923 220.356 84.4489Z" fill="#1A2E35"/>
<path d="M259.034 193.49C260.066 186.473 261.29 177.665 261.286 177.698C261.286 177.698 277.989 178.592 285.995 158.502C289.976 148.511 293.258 131.415 295.487 117.341C297.493 104.672 289.491 85.6653 273.735 83.0295L266.863 81.0759L238.281 87.2491C234.375 86.8091 230.777 89.4037 230.001 93.2234L213.713 187.474L226.158 215.918L256.969 204.093L259.034 193.49Z" fill="#C17560"/>
<path d="M255.268 148.465C255.597 147.391 256.375 146.521 257.272 145.983C259.066 144.906 261.383 145.152 262.873 146.577C264.363 148.002 264.933 150.517 264.251 152.657C263.093 153.788 261.504 154.42 259.883 154.295C259.63 154.275 259.379 154.243 259.13 154.196C257.923 153.967 256.757 153.359 255.98 152.323C255.202 151.286 254.863 149.79 255.268 148.465Z" fill="#7C4236"/>
<path d="M286.323 132.963C286.057 134.385 284.623 135.334 283.12 135.086C281.619 134.838 280.614 133.488 280.881 132.066C281.146 130.645 282.581 129.694 284.081 129.942C285.585 130.189 286.589 131.542 286.323 132.963Z" fill="#1A2E35"/>
<path d="M289.508 123.581C289.096 123.856 287.389 121.91 284.487 121.278C281.597 120.607 279.136 121.617 278.901 121.196C278.78 121.006 279.263 120.453 280.338 119.988C281.4 119.523 283.103 119.218 284.907 119.622C286.711 120.03 288.084 121.025 288.807 121.89C289.546 122.765 289.708 123.461 289.508 123.581Z" fill="#1A2E35"/>
<path d="M266.905 143.246C266.927 143.08 268.799 143.168 271.804 143.441C272.562 143.528 273.296 143.536 273.534 143.063C273.827 142.571 273.695 141.712 273.526 140.78C273.228 138.851 272.917 136.828 272.588 134.709C271.331 126.084 270.594 119.056 270.945 119.01C271.296 118.963 272.602 125.916 273.86 134.541C274.152 136.664 274.433 138.689 274.698 140.624C274.792 141.52 275.061 142.572 274.436 143.589C274.114 144.094 273.482 144.372 272.978 144.394C272.471 144.433 272.053 144.35 271.681 144.291C268.706 143.801 266.879 143.412 266.905 143.246Z" fill="#1A2E35"/>
<path d="M261.284 177.697C261.284 177.697 246.942 175.488 234.803 164.063C234.803 164.063 239.066 180.148 260.54 182.828L261.284 177.697Z" fill="#7C4236"/>
<path d="M257.922 143.358C258.399 143.434 257.707 146.555 259.905 149.362C262.097 152.176 265.532 152.563 265.459 153.005C265.459 153.21 264.576 153.446 263.151 153.173C261.75 152.915 259.82 152.026 258.475 150.309C257.135 148.589 256.834 146.622 257.014 145.319C257.187 143.988 257.711 143.292 257.922 143.358Z" fill="#1A2E35"/>
<path d="M290.206 117.734C289.561 118.328 287.444 117.37 284.802 117.013C282.171 116.571 279.857 116.859 279.428 116.102C279.243 115.737 279.68 115.116 280.737 114.608C281.782 114.101 283.459 113.786 285.273 114.059C287.085 114.335 288.586 115.13 289.421 115.922C290.272 116.72 290.494 117.44 290.206 117.734Z" fill="#1A2E35"/>
<path d="M253.405 126.633C253.092 128.046 254.04 129.472 255.523 129.824C257.002 130.175 258.458 129.318 258.771 127.906C259.084 126.494 258.135 125.065 256.658 124.715C255.175 124.363 253.719 125.222 253.405 126.633Z" fill="#1A2E35"/>
<path d="M250.082 115.975C250.353 116.387 252.69 115.252 255.612 115.789C258.538 116.285 260.407 118.164 260.79 117.867C260.975 117.739 260.748 117.042 259.94 116.199C259.144 115.362 257.697 114.425 255.875 114.102C254.052 113.782 252.398 114.168 251.392 114.688C250.367 115.208 249.945 115.787 250.082 115.975Z" fill="#1A2E35"/>
<path d="M253.39 106.97C253.845 107.731 256.226 107.459 258.943 107.919C261.674 108.294 263.869 109.269 264.525 108.677C264.818 108.385 264.578 107.66 263.69 106.855C262.816 106.056 261.256 105.249 259.384 104.961C257.511 104.675 255.787 104.977 254.72 105.481C253.636 105.983 253.196 106.603 253.39 106.97Z" fill="#1A2E35"/>
<path d="M227.756 129.134C228.1 127.582 227.11 123.527 225.617 122.948C221.633 121.403 214.119 120.094 211.721 130.465C208.444 144.643 223.486 144.979 223.606 144.578C223.698 144.264 226.568 134.492 227.756 129.134Z" fill="#C17560"/>
<path d="M220.854 138.502C220.802 138.442 220.565 138.619 220.1 138.714C219.646 138.807 218.909 138.776 218.227 138.329C216.842 137.437 216.119 134.77 216.641 132.199C216.902 130.9 217.459 129.733 218.156 128.82C218.833 127.882 219.677 127.311 220.47 127.351C221.266 127.349 221.701 127.923 221.784 128.361C221.885 128.801 221.728 129.063 221.799 129.105C221.83 129.149 222.16 128.937 222.18 128.326C222.187 128.03 222.096 127.658 221.822 127.309C221.543 126.954 221.071 126.699 220.527 126.635C219.406 126.461 218.181 127.241 217.415 128.242C216.588 129.236 215.932 130.54 215.638 131.998C215.069 134.876 215.927 137.884 217.859 138.946C218.805 139.435 219.715 139.324 220.225 139.088C220.749 138.839 220.898 138.539 220.854 138.502Z" fill="#7C4236"/>
<path d="M225.02 122.893L228.064 127.27C246.433 114.823 283.711 82.2342 281.607 84.1951C281.607 84.1951 271.478 77.9879 259.353 78.0487C247.227 78.1084 223.881 80.296 221.927 94.1334C219.971 107.972 225.02 122.893 225.02 122.893Z" fill="#1A2E35"/>
<path d="M204.542 116.292C204.519 116.281 204.643 116.009 204.902 115.5C205.164 114.993 205.603 114.268 206.264 113.403C207.584 111.682 209.932 109.444 213.429 107.656C216.889 105.798 221.463 104.569 226.56 103.85C231.655 103.08 237.308 102.762 243.038 101.361C248.791 100.052 254.063 98.0123 258.644 95.7722C263.215 93.5012 267.094 91.0035 270.18 88.6912C273.268 86.3759 275.582 84.2707 277.152 82.7911C277.878 82.0821 278.468 81.5072 278.932 81.0538C279.343 80.6591 279.567 80.4592 279.586 80.4767C279.606 80.4943 279.419 80.7271 279.042 81.1558C278.662 81.5783 278.117 82.2202 277.359 82.9951C275.846 84.5448 273.573 86.7211 270.504 89.1075C267.436 91.4908 263.553 94.0576 258.954 96.3853C254.347 98.68 249.025 100.761 243.21 102.085C237.406 103.501 231.716 103.8 226.658 104.528C221.589 105.207 217.098 106.362 213.67 108.124C210.21 109.819 207.86 111.946 206.492 113.583C205.126 115.24 204.612 116.332 204.542 116.292Z" fill="#375A64"/>
<path d="M208.373 119.236C208.373 119.236 208.423 118.038 209.456 116.197C210.454 114.365 212.605 112.006 216.013 110.342C219.403 108.603 223.943 107.928 228.857 107.632C233.786 107.37 239.168 106.885 244.634 105.372C250.087 103.876 255.104 101.804 259.361 99.3857C263.637 96.9931 267.201 94.3666 270.011 91.9626C272.849 89.5793 274.857 87.3464 276.28 85.842C276.913 85.1093 277.429 84.5117 277.839 84.0367C278.203 83.6286 278.404 83.4215 278.424 83.437C278.445 83.4524 278.284 83.6905 277.958 84.1294C277.576 84.6292 277.093 85.2577 276.502 86.0305C275.141 87.5988 273.179 89.9028 270.362 92.3573C267.573 94.8323 264.006 97.531 259.703 99.9813C255.418 102.458 250.351 104.577 244.83 106.091C239.31 107.622 233.811 108.094 228.902 108.315C224.001 108.574 219.564 109.187 216.245 110.815C212.9 112.375 210.758 114.603 209.708 116.343C208.624 118.091 208.469 119.269 208.373 119.236Z" fill="#375A64"/>
<path d="M168.406 249.68C168.987 250.793 168.987 264.52 171.608 279.922C174.23 295.323 187.562 326.762 187.562 326.762L184.807 348.103L300.622 361.209L286.685 324.263L288.214 289.468C288.214 289.468 297.077 279.737 293.332 253.761C289.587 227.786 284.166 205.483 284.166 205.483L274.853 201.547L262.958 197.177L218.516 183.39L194.184 180.536L170.86 228.158L168.406 249.68Z" fill="#C17560"/>
<path d="M175.794 296.462C175.794 296.462 184.32 290.485 204.809 290.044C225.298 289.602 285.66 299.664 285.66 299.664L287.815 291.798C287.815 291.798 302.428 269.752 291.783 244.327C280.433 217.219 284.314 204.872 284.314 204.872L274.853 201.546C274.853 201.546 265.371 220.056 257.289 224.541C248.171 229.601 231.396 229.364 216.612 210.167C206.212 196.663 206.037 181.491 206.037 181.491L194.915 180.536C194.915 180.536 192.338 209.064 186.77 222.304C181.202 235.542 167.125 263.236 167.125 263.236C167.125 263.236 173.059 292.729 175.794 296.462Z" fill="#69B99D"/>
<path d="M183.594 348.145C182.845 350.001 170.86 381.914 169.361 407.89C167.863 433.866 167.488 466.336 173.106 487.58H239.399C239.399 487.58 244.923 440.624 246.796 438.398C248.669 436.172 250.541 435.469 251.291 443.984C252.039 452.499 249.887 487.58 249.887 487.58H314.322C314.322 487.58 316.179 429.189 314.681 414.828C313.732 405.731 310.679 390.781 308.568 381.044C307.248 374.957 305.438 368.988 303.146 363.19L295.635 344.196L183.594 348.145Z" fill="#1A2E35"/>
<path d="M300.623 356.81C300.623 356.819 300.517 356.829 300.309 356.84C300.072 356.848 299.768 356.859 299.387 356.874C298.54 356.892 297.354 356.918 295.845 356.951C292.769 356.991 288.319 357.116 282.822 357.307C271.828 357.682 256.659 358.602 239.912 359.762C223.159 360.923 207.973 361.784 196.969 362.062C191.468 362.204 187.014 362.271 183.937 362.247C182.428 362.237 181.241 362.23 180.394 362.224C180.013 362.216 179.709 362.209 179.472 362.204C179.264 362.197 179.158 362.189 179.158 362.179C179.158 362.17 179.264 362.16 179.472 362.149C179.709 362.141 180.013 362.13 180.393 362.115C181.24 362.098 182.427 362.071 183.935 362.038C187.01 361.998 191.46 361.873 196.957 361.683C207.952 361.308 223.122 360.388 239.874 359.227C256.623 358.066 271.806 357.205 282.81 356.928C288.311 356.785 292.766 356.718 295.843 356.742C297.353 356.752 298.54 356.759 299.387 356.765C299.768 356.774 300.072 356.78 300.309 356.785C300.517 356.792 300.623 356.8 300.623 356.81Z" fill="#375A64"/>
<path d="M190.544 362.181C190.553 362.183 190.537 362.293 190.497 362.505C190.449 362.745 190.387 363.055 190.309 363.445C190.124 364.304 189.864 365.511 189.533 367.047C189.182 368.608 188.765 370.52 188.344 372.753C187.917 374.984 187.371 377.513 186.917 380.337C186.673 381.746 186.419 383.222 186.154 384.758C185.892 386.296 185.683 387.907 185.431 389.568C184.904 392.888 184.505 396.457 184.048 400.208C183.243 407.722 182.593 416.007 182.322 424.724C182.092 433.443 182.268 441.754 182.662 449.3C182.918 453.07 183.121 456.656 183.481 459.998C183.649 461.67 183.773 463.289 183.959 464.838C184.149 466.385 184.332 467.871 184.507 469.29C184.821 472.132 185.259 474.681 185.586 476.929C185.903 479.179 186.241 481.105 186.531 482.678C186.799 484.226 187.01 485.442 187.16 486.307C187.222 486.7 187.271 487.012 187.31 487.254C187.341 487.468 187.352 487.578 187.343 487.58C187.334 487.582 187.304 487.475 187.256 487.265C187.204 487.026 187.137 486.717 187.053 486.328C186.879 485.467 186.635 484.257 186.323 482.715C186.001 481.147 185.632 479.224 185.287 476.976C184.931 474.731 184.466 472.182 184.127 469.34C183.941 467.92 183.747 466.433 183.544 464.884C183.345 463.334 183.212 461.715 183.034 460.04C182.654 456.695 182.433 453.104 182.164 449.329C181.741 441.771 181.55 433.444 181.78 424.708C182.051 415.977 182.718 407.676 183.552 400.153C184.023 396.398 184.44 392.825 184.987 389.503C185.249 387.84 185.468 386.229 185.742 384.691C186.019 383.155 186.285 381.679 186.54 380.27C187.018 377.447 187.591 374.92 188.048 372.693C188.496 370.463 188.943 368.556 189.327 367.002C189.701 365.474 189.994 364.274 190.203 363.42C190.303 363.036 190.382 362.73 190.444 362.493C190.501 362.284 190.535 362.179 190.544 362.181Z" fill="white"/>
<path d="M184.806 362.83C184.816 362.832 184.8 362.941 184.761 363.152C184.713 363.392 184.651 363.701 184.575 364.088C184.391 364.943 184.134 366.144 183.806 367.672C183.458 369.225 183.043 371.127 182.633 373.349C182.216 375.57 181.674 378.086 181.236 380.897C181.001 382.299 180.754 383.769 180.497 385.298C180.24 386.829 180.045 388.433 179.803 390.086C179.297 393.392 178.922 396.945 178.496 400.679C177.749 408.158 177.176 416.405 176.989 425.077C176.844 433.753 177.101 442.018 177.561 449.522C177.845 453.269 178.082 456.835 178.461 460.157C178.64 461.819 178.773 463.428 178.972 464.967C179.171 466.505 179.36 467.983 179.542 469.393C179.872 472.219 180.317 474.753 180.65 476.987C180.974 479.224 181.315 481.14 181.604 482.704C181.873 484.245 182.084 485.453 182.235 486.314C182.297 486.704 182.347 487.014 182.385 487.255C182.415 487.469 182.427 487.578 182.418 487.58C182.409 487.582 182.379 487.476 182.33 487.267C182.278 487.028 182.212 486.721 182.127 486.335C181.953 485.478 181.708 484.274 181.396 482.742C181.076 481.182 180.704 479.271 180.351 477.036C179.989 474.804 179.517 472.27 179.162 469.445C178.97 468.033 178.767 466.555 178.557 465.016C178.347 463.477 178.203 461.866 178.015 460.202C177.615 456.877 177.36 453.307 177.063 449.554C176.575 442.04 176.302 433.759 176.447 425.067C176.635 416.379 177.225 408.117 178 400.627C178.441 396.888 178.832 393.331 179.358 390.023C179.611 388.369 179.815 386.764 180.085 385.233C180.353 383.703 180.612 382.235 180.859 380.831C181.321 378.021 181.89 375.507 182.336 373.29C182.775 371.07 183.22 369.173 183.6 367.626C183.97 366.107 184.261 364.913 184.468 364.063C184.567 363.681 184.646 363.376 184.707 363.14C184.764 362.933 184.797 362.828 184.806 362.83Z" fill="white"/>
<path d="M295.666 345.523C295.632 345.538 295.351 344.961 294.87 343.902C294.364 342.761 293.69 341.241 292.874 339.395C291.207 335.576 288.933 330.273 286.435 324.367L286.416 324.322L286.414 324.274C286.404 324.026 286.393 323.759 286.381 323.49C286.108 316.913 285.889 310.958 285.759 306.647C285.707 304.556 285.665 302.832 285.632 301.54C285.629 300.989 285.627 300.531 285.625 300.15C285.629 299.833 285.641 299.665 285.659 299.665C285.678 299.664 285.703 299.829 285.734 300.146C285.764 300.525 285.8 300.982 285.842 301.532C285.918 302.822 286.019 304.543 286.142 306.631C286.37 310.938 286.648 316.891 286.923 323.467C286.933 323.736 286.945 324.004 286.955 324.252L286.934 324.16C289.427 330.068 291.645 335.394 293.221 339.251C293.974 341.123 294.594 342.666 295.06 343.823C295.483 344.905 295.701 345.509 295.666 345.523Z" fill="#7C4236"/>
<path d="M283.686 250.333C283.657 250.478 279.284 249.748 273.92 248.701C268.552 247.654 264.227 246.688 264.256 246.541C264.285 246.396 268.657 247.128 274.024 248.174C279.389 249.221 283.715 250.188 283.686 250.333Z" fill="white"/>
<path d="M136.964 434.76C136.964 445.56 128.127 454.316 117.226 454.316C106.325 454.316 97.4883 445.56 97.4883 434.76C97.4883 423.959 106.325 415.204 117.226 415.204C128.127 415.204 136.964 423.959 136.964 434.76Z" fill="#FF735D"/>
<mask id="mask7_3040_18" style="mask-type:luminance" maskUnits="userSpaceOnUse" x="97" y="415" width="40" height="40">
<path d="M97.4883 415.205H136.964V454.316H97.4883V415.205Z" fill="white"/>
</mask>
<g mask="url(#mask7_3040_18)">
<g opacity="0.300003">
<path d="M136.964 434.76C136.964 445.56 128.127 454.316 117.226 454.316C106.325 454.316 97.4883 445.56 97.4883 434.76C97.4883 423.959 106.325 415.204 117.226 415.204C128.127 415.204 136.964 423.959 136.964 434.76Z" fill="black"/>
</g>
</g>
<path d="M143.251 434.76C143.251 445.56 134.414 454.316 123.514 454.316C112.612 454.316 103.775 445.56 103.775 434.76C103.775 423.959 112.612 415.204 123.514 415.204C134.414 415.204 143.251 423.959 143.251 434.76Z" fill="#FF735D"/>
<path d="M112.456 398.399C112.456 399.134 112.438 411.907 110.214 419.068C107.989 426.23 106.878 433.575 107.804 436.329C108.731 439.083 119.109 449.182 121.519 450.1C123.928 451.018 145.056 449.182 145.056 449.182L152.283 424.76C152.283 424.76 143.943 413.009 140.423 406.765C136.901 400.522 133.718 393.254 134.105 388.901C134.492 384.547 112.456 398.399 112.456 398.399Z" fill="#C17560"/>
<path d="M160.466 436.631C160.466 447.432 151.629 456.188 140.727 456.188C129.827 456.188 120.99 447.432 120.99 436.631C120.99 425.831 129.827 417.075 140.727 417.075C151.629 417.075 160.466 425.831 160.466 436.631Z" fill="#FF735D"/>
<path d="M183.967 180.774C178.128 181.515 172.475 183.438 167.541 186.619C159.499 191.803 149.782 201.759 146.304 220.406C139.981 254.309 136.633 284.159 132.914 291.899C129.195 299.637 121.383 314.378 120.64 329.856C119.896 345.334 112.457 398.4 112.457 398.4H131.798C131.798 398.4 149.652 343.491 156.346 325.803C163.042 308.113 161.301 307.68 165.763 291.096C170.227 274.513 179.518 242.619 179.518 242.619L190.668 208.938L194.184 180.537L183.967 180.774Z" fill="#C17560"/>
<path d="M180.53 209.698C180.596 209.675 181.041 210.627 181.633 212.218C182.22 213.809 182.938 216.051 183.466 218.592C183.992 221.135 184.225 223.476 184.316 225.168C184.405 226.862 184.374 227.911 184.305 227.914C184.225 227.917 184.121 226.875 183.934 225.2C183.745 223.524 183.455 221.214 182.936 218.7C182.414 216.188 181.762 213.952 181.27 212.337C180.774 210.725 180.456 209.726 180.53 209.698Z" fill="#7C4236"/>
<mask id="mask8_3040_18" style="mask-type:luminance" maskUnits="userSpaceOnUse" x="120" y="417" width="41" height="40">
<path d="M120.99 417.076H160.466V456.188H120.99V417.076Z" fill="white"/>
</mask>
<g mask="url(#mask8_3040_18)">
<g opacity="0.300003">
<path d="M160.466 436.631C160.466 447.432 151.629 456.188 140.727 456.188C129.827 456.188 120.99 447.432 120.99 436.631C120.99 425.831 129.827 417.075 140.727 417.075C151.629 417.075 160.466 425.831 160.466 436.631Z" fill="black"/>
</g>
</g>
<path d="M167.411 436.631C167.411 447.432 158.574 456.188 147.673 456.188C136.772 456.188 127.936 447.432 127.936 436.631C127.936 425.831 136.772 417.075 147.673 417.075C158.574 417.075 167.411 425.831 167.411 436.631Z" fill="#FF735D"/>
<path d="M148.344 438.651L147.431 438.715L147.537 440.17L146.271 440.26L146.165 438.806L143.145 439.02L143.068 437.941L145.393 433.359L146.754 433.262L144.605 437.602L146.111 437.496L146.018 436.2L147.243 436.112L147.337 437.409L148.25 437.344L148.344 438.651Z" fill="#1A2E35"/>
<path d="M150.796 437.842L150.249 438.617L150.347 439.972L149.098 440.061L148.566 432.718L149.815 432.629L150.116 436.786L151.788 434.519L153.278 434.414L151.647 436.796L153.824 439.725L152.309 439.833L150.796 437.842Z" fill="#1A2E35"/>
<path d="M164.205 436.632C164.116 436.64 164.226 435.171 163.585 432.658C163.287 431.4 162.682 429.916 161.738 428.345C160.787 426.78 159.418 425.148 157.559 423.764C155.707 422.393 153.374 421.229 150.684 420.762C148.011 420.312 144.997 420.398 142.128 421.482C140.684 421.979 139.292 422.731 138.013 423.68C137.351 424.131 136.774 424.694 136.169 425.236C135.622 425.837 135.047 426.424 134.575 427.107C132.574 429.744 131.447 433.136 131.414 436.63C131.446 440.125 132.573 443.517 134.574 446.156C135.046 446.837 135.621 447.425 136.168 448.026C136.773 448.568 137.35 449.132 138.012 449.582C139.291 450.532 140.684 451.284 142.128 451.782C144.997 452.866 148.012 452.951 150.685 452.501C153.376 452.033 155.708 450.87 157.56 449.499C159.419 448.116 160.787 446.483 161.739 444.918C162.682 443.347 163.287 441.862 163.586 440.605C164.225 438.093 164.116 436.624 164.205 436.632C164.214 436.632 164.22 436.721 164.22 436.898C164.215 437.105 164.211 437.362 164.206 437.679C164.206 438.024 164.187 438.448 164.103 438.946C164.036 439.445 163.971 440.024 163.79 440.656C163.519 441.937 162.936 443.456 161.999 445.072C161.055 446.68 159.679 448.365 157.793 449.8C155.913 451.223 153.528 452.438 150.767 452.938C148.025 453.421 144.921 453.35 141.958 452.247C140.467 451.74 139.028 450.969 137.704 449.994C137.02 449.53 136.421 448.952 135.796 448.393C135.23 447.776 134.636 447.17 134.147 446.467C132.075 443.747 130.903 440.24 130.873 436.63C130.904 433.02 132.076 429.514 134.148 426.794C134.637 426.093 135.231 425.487 135.797 424.87C136.422 424.311 137.022 423.732 137.705 423.269C139.028 422.294 140.467 421.524 141.958 421.017C144.921 419.914 148.024 419.842 150.766 420.324C153.527 420.825 155.912 422.04 157.792 423.462C159.678 424.897 161.054 426.583 161.998 428.192C162.935 429.806 163.519 431.326 163.79 432.607C163.971 433.239 164.036 433.819 164.103 434.317C164.187 434.814 164.206 435.24 164.206 435.585C164.211 435.901 164.215 436.159 164.22 436.366C164.22 436.542 164.214 436.632 164.205 436.632Z" fill="#1A2E35"/>
</g>
</svg>
